<mxfile host="Electron" agent="Mozilla/5.0 (Windows NT 10.0; Win64; x64) AppleWebKit/537.36 (KHTML, like Gecko) draw.io/27.0.9 Chrome/134.0.6998.205 Electron/35.4.0 Safari/537.36" version="27.0.9">
  <diagram name="Page-1" id="4C_Njt3h19NlaIOVAYjM">
    <mxGraphModel dx="2377" dy="1415" grid="1" gridSize="10" guides="1" tooltips="1" connect="1" arrows="1" fold="1" page="1" pageScale="1" pageWidth="1100" pageHeight="850" math="0" shadow="0">
      <root>
        <mxCell id="0" />
        <mxCell id="1" parent="0" />
        <mxCell id="NWNPOwhrwh37BkT3EGu5-1" value="" style="shape=image;verticalLabelPosition=bottom;labelBackgroundColor=default;verticalAlign=top;aspect=fixed;imageAspect=0;image=data:image/png,iVBORw0KGgoAAAANSUhEUgAABLoAAAG3CAYAAACzPjwZAAAAAXNSR0IArs4c6QAAAARnQU1BAACxjwv8YQUAAAAJcEhZcwAADsMAAA7DAcdvqGQAAMAqSURBVHhe7P0PfBXXfSf8f/SPf61T7CVpTdPFhqsImYjaBPaFlI0pxcJIxq60DfLWu0toTaWa/b1A2sewximsF1qTx/hZyTxZUimmpXTX3RXZoDpYssHEod1IeMHYsYwFvjKGJrH7tMSGOG2wJLi/+Z45c+/M3Jm5c6+u0NXV542P75m5Z2bOzP0389U5ZwpiQxdjICIiIiIiIiIimuAK9SMREREREREREdGExkAXERERERERERHlhXiga/acpToXjOW8sZw3lvPGct5YzhvLeWM5byznjeW8sZw3lvPGct5YzhvLeWM5byznjeW8pSrHMbqIiIiIiIiIiCgvsOsiERERERERERHlBQa6iIiIiIiIiIgoLzDQRUREREREREREeYGBLiIiIiIiIiIiygsMdBERERERERERUV5goIuIiIiIiIiIiPJCQWzoYkzniSakWIxvYSIiohupoKBA54iIiIhyCwNdNKFkEtRiIIyIiCg9mQSyGPwiIiKiXBDvujh7zlKdC8Zy3ljOW7bKSbBK0q/eVqnnmKz57iTlvOa702dvr/Kc704s551YzjuxnHdiOe/Ect6J5bzTeJXz+l11k3kT/XzDwnLeWM4by3ljOW8s543lvLGct1Tl2KKLcprfibSdVxnhN5+IiIjC8Wul5Z7vVY4tvIiIiGg8MNBFOStVQMuaTp6vM0RERJQV7piVFcRKFfBisIuIiIhuNAa6KCcFBbncAS7rqaBliIiIKH1+gStrdmI6Uc5vGSIiIqIbgYEuyknBgS3rUT0kzbe4p4mIiCg9fkGrxKN68JivnzDY80RERERjjYEuyjn2AJU7iCWP1tNmPvl5i1+eiIiI/PkFqdxBLHlM5L2ft9jzRERERGOJgS7KOX7BK3mUrHPaGeyy581H9UBERERpsmJT9sCVO++cdpb1eiQiIiIaawx0UU6xAlTCHcCSyUQ+kbzKWPPsj0RERBSOV6BKsuajfZ47JZex2PNEREREY4WBLsopXkEqM9nzyen69UTevpyVJyIiovDsgSp3vrDQCmr5peTl7I9EREREY4mBLsop7uCUFbCSyevXr9umJbgl0+Z8+3P25cy8eohPExERkbdEUEo9qGl7oEpSYWGhLe+elnzycvZHIiIiorFUqB8xe85SnQvGct5Yzlu2y93+ubtVwEoCW9euSbrmSCMj1zA8PILP37UKwyMjOg37poVfqPGc704LWc4zLWQ5z7SQ5TzTQpbzTAtZzjMtZDnPtPCGldO/ocZvqqQFd96rfmNHjHmSEr+9zj82zYn8S/2LHSxfzktYzhvLeWM5byznjeW8sZw3lnNiiy7KKdaJsj0vk9ZJtPVonVgf/e4JVZaIiIhurOV3L0ZRUZFOhao1l5W8WnWxRRcRERHdCAx0Uc5IDnCZQS4rbw92SaBL/qL83eMnsebB9Wo5IiIiujEO/s9n8aWqu1SAq6SkJCnYZQa2EgEuK8jFYBcRERGNtXjXRaJcJgEu61EGnpdglyQiIiIaH9LF0frDk3Rj5O8yERER5QIGuiinWa257Hkz2CWBLjZGJCIiGi8ydtfINQlymX98sv4QZf/tJiIiIrrRGOiiCSER5HIGvIiIiGh8mAPTX8O162ZrLv4+ExERUS5goItyltd5sv0k+nqMXSSIiIjGiwS53AEuSRZbloiIiOiGYaCLJgz3ybN9moiIiG4sGZfLGpuLv8tERESUK3jXRcoZ1gmyPFonzdZfiuVRkowDIifVMi6IDILb92p/qLsu9n73r3Du5TYU/nTQmEr1li/A9U9FUHZPM6p+87f0PCIiIrLIXRc/F/k1TJs2VaWpU6ZgypQSdQfG4uIi290XEb8Lo+BdF4mIiGisMdBFOSNVoMsa7NYKdA0ND+HE/3krZaBLglwFx9eh8lcv6znh9P14JmLL9jPYRURE5CKBrsjcX8X06dNUkkBXSUkxphiPDHQRERHReIp3XZw9Z6nOBWM5byznLd1yEtSyAl5eyj6/ImUZt7NHW8MHuabeAtQeAW5dhqWzL+PMkWf0E0RERORm/SZbv8ufW/Cb6tHO63d7opyXpMJy3ljOG8t5YzlvLOeN5byxnBNbdFHOsJ8smynRosscA8R8TLToGsarJ1O36Nr///vn+DcVH6Dopl9DYeX/AwxdAXo3AcM/1SW0aZ8G7nsZ+KVSxI7U48qFE/ifZz6Npv8a1QWIiIgmpo6ODvyrf/WvMGvWLD3H6dKlS/j2t7+NxsZGPSeYtOiad/tsR4suq+uitOyyt+iSVlz2RERERDSWGOiinDFWga4/2RDBv1rwMT5V/Q0UfRxFyac+C3zYD/zg/9YlDNM+A6w+BnxqXjzINRSbim+fuQl/sFfG9XJ7D8c6juJdPSXmVTdixe16Ik7KvYZb1nwZd+F1fOvgu5gn+Zv104E+wuvfOoiTH+rJW5ZgzZfvQqhF84b7ON+CJaGP3xj7KN3XMxNB7zN57jzmNq7A7WGO03vH0HHUVmLJGnw5XsD2PvXZl/eOdeAoqtHoeJMH1c/Nvg2v7bmfN9Y7z2t77uW8PyeXpb72imm3LFmCm43C5nHTUh6bsHWRVQVt92TKYxV4nFPVwbEf81Adf29Y7xODRxmjgE+djeMw83TqY6OnhP/rT+NNAlldf/VXqPut30oKdgU958cKdMn4XDNmTGegi4iIiHIG77pIea8QMUwr/DkKPvkJrs1coAaax83l+lnD9F8G7v+uGeT67kP42ZWfqCBXahJMaFR//ZaU8uLu5rvw5UbrolguEL+F1z9SzySTIErHQXz4hcT65Xr0wnv6+byS4ljYjvOaJcDJY6/Dt+iYctXT8XqOJdv7zDgAHx09ZtTES8BxUsGNj2zv1zWY9+5BfMv/oDsZ78fXPpqHeR+95vE62epXPQ/v+tYvXbfglo+O4ljQygI+J7evsOZVY56tjl++a6ZeWAt1bELURQvebopjleI4B9ZBjsVRoFpt20hrbsFld1mfMr51VkGu1McmcJ8oZ0gASwJZEtCSwJYlkyAXERERUS5joIvy3tTCT/Cpoo9R8OoWDL/fh2sf9AHzHgTm/z4wXVpyfRe4aa4KcuGOf48ZDxwGiqfLvRdRUjCs13IjfYTXj53Eze6WETffhbsmeUuJm+/6AuZ9+C4uhIzP5J2bZ+Jm4/1xOcX+O4+T8X567V3Mq7YH5W7GXSskGnY6VFDiowvvGp+ZRVg0D3g36ODfPhfzQtQvrHlfWIKPXvMLbGbjcxL+2ATXJQMexyrVcQ6sw+UP8eEttyAexvM6DmHKxGXwvsny60/Z5w52MchFRERE+YiBLsp712JFRirE1aFr+Pmbz2Ko76vAiw8YF33ngPuOATfdHg9y4da78fHxLSgY+UfMLL6M4oJrei1pUK1MOtR4KN963T4IvtUiyOru8yFOHjTKuZtofHQB7344D3ODLtZt25CUWIXexnuJ5+W5j17/VrxsojVGcllHS41U23j9mMc6DY7lrNYdfsukOBaBzHUeOyb7preTxnEJW2dz/TLfXU+9Tms1nuv4CK9/y5pnr0+G3juPd+d9Ib1WZH7vp5tvw7xbwgQlPoKKv9x2s7GIisB4B1qE1O+WeTCKZsfMu/CFm0/imP21soT5nKSSzrEJqksmko5ViOMcVAcJMn2Yon5hylgyed9k+/WnMWEPdjHIRURERPmIgS7Ke0OxEvxkZBauxqar6Z9fn47rl14Hvrgn3l3RCnJdOdKEohmfxk0lV/HxtZtUkMyfDno4Ahvv4dhBs5WJdOVZgXcd49eYbscKexchrz6P9lYXSZzbMLuz2QIuUq/XYGzD6krUgWNGTayuRR86WmPYypr93fR6Qmzjw7ke65TlZNwqvVw18Fp8Ia9lQhwLm49ef811If0hPrpF9k2PRRT2uCTtq3+dzfXLc0H19FnHe6dx8uZqvXymYxcZ9bbeZ9LtLMRKko6T7/vpQ3yY6oakEvAw9lytS4IcxpSzsZGtfueN1zfL48jdvqIaN8dfK5fAz0lIaRybwLqEEnCsUh5nk38d5LNkdi30D6qGKWMT6tiM7etPRERERJQuBroo70mrrGkFP1dJuiPGptyMa7XHgF8qSwpyTf3ny/GLy3bjk1/7bYzESlSQzJ9tbBproOePLuOjW5ZgkY5FqC5kZjY9H34I3/iDbMNYa7ylxc134Qvz7BeeRr1W6ItN1ZXoFtVKREnqWmQra19PmG1YO2lfp1rOHph519gVayGfZVJKrO/gyZtR7biQtu1bOsclaV/96xxffxC/dcy8Bbe8e9TZeszOsxWYm1Fv63225ha8Zm9F5hBwnHzfT0b9UkSKzO50t+l13QxpbHTytL2mun5rlhj7et5nH0bjdqyovtm1TS3ocxJWWscmoC6h+B+r1MfZElSHm3HXl831fyQBbs9qhimjhTo2Y/36U7bZuyvauzESERER5QsGuijvyThbnyr+WCXpjvgLv74eGP45rh35bQzfvBjDhTfhykuNKJryC5hySwQ/+/52fHK+Ry07LveGUl2D3sX5G37FGDbwlIrcyc248LVSZs2YbGyBHiugOGrufc1GnT3WcbMMWC8t+8wum0lBBf186H1T7w178M7O5zj5vZ9U17SbMTMwjvceTp80tnfSbAFkBtE+BLwCGsa+rFjyka01XJCZ0ljISQULfepz+yIscQ/Eno3PSSbHxqsu6Uo6VmkcZ5GqDmr9txiLB1QyVZl0j01arz+NF/eYXO4xu4iIiIjyAQNdNHkUFKNk/r/DlCs/wLXnl+HjC9/H5f+zB5cPPYDh915ASfRZfPTtB/DzH3So4qoVWOFVlQ9NBgv/8CSsxhaqC5mZTcPNuOsLusuh/SLzo9fxukyrAcltF6DG/Nfe9RhLJ5QPE4NeqwtYvZ5Mt6GXG5eL3ZR1Dt7XUdU5xTpuvuvLWLPkFnw02kiiqnfqVlhO1vvJ3mLM7OaJJYuCg2tqzKUlWBMPxklagyU+ASZpwejbtc8xfpMESj503BnyvdMn8eG8uT71MQdB/+iojJNmSfE5CSWTY+NVl/Q5jlWax9mzDu8Z+x0/7jLe14e4xf1GCVMmLv1jE/j607jzG3iewS4iIiLKN/FA1+w5S3UuGMt5Yzlv2S43v+IenUuHbpd1xyNA8S+g+DOLMPzZ30Lxov+IqfNWo2Tm7filyscwcscmFH5mMW76zWfwi79yB24q+jixrCdbVzUjmd3TpFuRefEt845hnvHPy+2YO08v79Us4/YV8a5F1vo7jgG3qatLYxv259TYUJm2dLoFN3+oB4hX41tZ68l0G+Zyxo7Z6p0q6pDiWISWqs7B+5q6zkH19FnHe4nB96U74RfSGkXeYnufqX2y3wUvJHk/VQNHrbqpwb4a8WXHipLfz++dfxe3xLvTWaRbnV9LoNuxSA1/Zr8z4Hs4Jus8+lGi66jh9hVrsAQncVBv7+hHS7AmqCWdboHkEPg5CSnUsXHxqkvaEsfq9bSPs8Fdh9tn4sP463dQjQ2XtA9hytilfWwS+0S559vf/nZSkMtiBbukzGiVfX6FzgXLl/MSlvPGct5YzhvLeWM5byznjeWcCmJDF2M6TzSuYrGYKwHXr19X+WvXrhl581HS8PAIhoaH8erJt7DmwfV6Dd7+dOtv4PduPw4sfBSx4Y8Rm/cQPv7Bn2Nq5AGM/ORtTP27IxiZ/wg+/m4zij41B5/6F5sQ+9sX8bN3nsehv12Ih7/2Pb2mfCMBiNdwSyaBkwlnMu0rEdHYO/g/n8W822dj2rSpmDFjOqZOmYIpU0pQUiKpGIWFhSoVFBgnm8b/7ImIiIhoLLHrIuW9+dUt6PvxTMTe/gauTo/gkys/xtAPX8HIj76H6VOAn17+EMPv92H6wt/H1MJPEPvHD/CzS3+Lkz++CeUrW/RaiIiIiIiIiCjXsUUX5YyxatEler/7Vxg4ugcjP/1btT4hg9RfRxGuxcx4r/yNeWrhVXwSm46Cm27H51f+e1T95m+p5/ITW3QREVFmxqNFl/X7TURERPlhrFp6M9BFOSMR4Mp+oIuIiIiyJ9uBLvmtJyIiInLLJBhW9MS2lid0nijnWCe+VuDLfIypANg1I/34/b/Hgs8vUmWIiIjoxnj7zGnccvNNKC4uVsGt4qIiFMWTBLiswJZ3oCudwFY6ZYmIiGjisc4PwghTloEuymnWya0Z4GKgi4iIKBdkEugKIyioFfQcERERTTxB5wdhzh38yjDQRTnNOqk1A1wMdBEREeWCdANdwprn5g5guactfvOJiIgov7jPF7zOHyxezzHQRTnNOqmVR8majwx0ERERjaewgS7jl1uVt6atk1F30Cr1tM4QERFR3vD6fbfOFSyppi32+RyMnnKGFcRKJA5GT0RElIvCDEYvJ5xyzmk+JpL8rlv88zpjsM8X7mkiIiKaWOR8wM4+bX/KOd87b2fNL1T/N8yes1TngrGcN5bzlu1y8yvu0TkiIiLKNWWfX6FzySRAZQWpPnt7VTxvzZfJRDLn/fN5X4zn5Y9f1h/A7NOSbiv9kmPaL7Gcd2I578Ry3onlvBPLeSeW806TtVzQb7o8mr/7yecD1vmC5Vdvq3RMu7FFF+UM602cSGzRRURElItSteiSv6iarboSf12VR0nyu26x8vKQyHs/Cr88ERER5T7rnEB45b0erWJe5YU9L9QyDHRRrpATVmcKF+hauWqNXgMRERHdCEd6DmLeXO9AV3FxkQpyWYEuYZ6oJk5E5bfdfFQP+nffmuf9KPzyRERElPv8AlRW3usxkVcPSWWEPS8Y6KKcISeszsRAFxERUS7KJNBlPcrvupCHRN4Z6LLnnY/qQbHmERER0cTgDE5Zj4lzBOvRP6+yjnn2RwsDXZQzrBPbRGKgi4iIKBeFDXQZv+6eJ6HyG2/93pvTid9/57SadMy3PxIREVHukt/rpCCU67wg8Wjm7fO9p9WkY779UTDQRTnDPKG1Jwa6iIiIcpFfoKu4uBhed120SF5+3+2/90Ierd98mSV5a771aM/bH4mIiGhicAelzHOFRBKFhc551nznPDUrPm2x8gx0Uc6wTmITiYEuIiKiXJROoEskTkLNrovuJL/38jtvn7Y/b/znmBZGTj0SERHRxGCcGZiP6hzBTFZgyzp3sJ9DWHn3Mtbz9uccjwx0Ua6wn8CaiYEuIiKiXBQ20CXhKPPRPPEU9t/6xO/8df1bb07Lb77Kyz9beeM/9With4iIiCYOe0BKsvHgVoE55EFRkfloJSljlvVL7nXqPANdlCucJ7LmySwDXURERLknG4Eu+Y2XJEGukZER8/HaiJ7v1aorkcz1qAciIiLKQdbvtUgEo9SDmraSFdSSIFdxUXF8rM+iIvNRlrHK2Zczk33d5jyVZ6CLcoX7JFY+Fwx0ERER5R6vQJcEuGQwenm0n4Aap5tqGYv1O28Pco2MXMOup/5ElyAiIqLJ6D80/y5Kis0b21iBrkyCXfFA1+w5S/H+xRPqySAs543lvKVT7scX+uInv2ZKDnSV3rEcZ954iYEuIiKiceQX6KpYVIN3z34vfqLpRX7X55YtQ/Tt76oA17Dxez48MoLd/8+zaH2mXZciIiKiyaRlUxOe+x9deO3V5x3BLuucwj6Wl5xHXIj+Tfw54z9b3khs0UW5whnk8g50sUUXERHR+Atq0WV1OZATTS/Wb7v8rktrLvlN/2ToE/yXtj9joIuIiGiSkkDXhj94CFOnTkVJsdmFMdF90WrNZRvXSz+aKRHoEoXq/0REREREWSKBLLvEH7HM+Wagyxyjy0z8uysREdFkZ92c5tp1s6GL/fzBTIlzDGuenTXNFl2UM6w3aiJNjhZdTz31lM4REeWeLVu26BxRQqoWXeZfVeXvqYnTTPk9tx6t33Rp0SW/5598MoQ9Xz/AFl1ERESTlLToWv97a9S5hbrBjWtgeqvFlnRhTNWqi4EuyhmJANfkC3T98R//sZ4iIsodX/3qVxnoIk/pBrrkt9x6lGT9psvv+fCIGej6f//rXzDQRURENElJoOv31v22DnRNUecTEuySuzFKQMtKco7hHexKBLrYdZGIiIiIxow7yKUnbdNmIiIioslN/hBmJrPBi1cS7rwbW3RRzrDerInEFl1EROMpqEXXihUrdC68Y8eO6RxNdH4tuoqLpVVXsf6LaqHxG35dlZffcuvR+n23BqI3uy5+gr1/8lyoFl293/0rnHu5DYU/HTSmUp3GFuD6pyIou6cZVb/5W3oeERER5Rpp0fWVf1ePqVOnqK6LVvdFabHlbtXl1aLLuisjW3QRERFRxk6dOhU60eRjBbcsVpDLfExOYUiQq+D4Ovzubd/DVxb+yEg/TpF+pMrKMrIsERER5S57Sy7Vsivm17LL6zxDZwwMdBEREVFuOL8X1dV7cV5PpmU0y46lXK1XltlPNq0TUIv7RFSYZYwk/1zlg5w92orKX72sp1KYegtQewS4dRmWzr6MM0ee0U8QERFRLpJzAgl2JXdd9D6fEPb5VnkGuoiIiGhM/PCHP0RNTQ1eeuklPSek8QoOTfSglL3+ObYv1omnlSxe84IUfnwew7FiXP/F24HqbwPL/gwo+ZR+1mbap4HVrwC/8i8RK5qGK9d+Cdc//qF+koiIiEZLugi+9tpreiqZPCdl0pE4L7Dl9R/FnM8nkpd4oGv2nKU6F4zlvLGct2yXm19xj85lpnrmTFTvtZ3258yFwCDaqhJ9iu2pqk3GILH0oKmqzShNRJTbJMjV2NiIefPm4e6779ZzQ5q7AUePbsBcPXnDjNd2x8I47Uv5wmqdM/mdgEo5eSrViarb1etT8NHILRha/DSGP3zHOJMtAe54RD+rTfsMsPq7wC+VInakHlcunMBQbGrANozf1oIm4/85qqfJdl5g1VPqbD9f+CKeiZ8ceO3PIJ75oq38F5/R5xLu9RSg6YYdCNm2vd5ewpQhIqLxIENTVH7xX3oGu2SePJfu8BU19/+u49xAfrrt05ayzzvHirU/J+KBrvcvntC5YCznjeW8Zbvc2f6XdS5DS9ZhwaEm2GNduSGC5l79AY62orKyFVH9Ye5tjqgSg21VxgloLTrUFBFR7rIHuXbv3o3p06frZzzIHxxmzsRMSYsex0lrnv4jxPm91eZzkmSeeq4ZzdV6npGaj8pCCY5lZlbr7/zz2Gsskyh7FM3x5zRru/pxb7P/NkRS3dRcWa9tue+rmXjRa132fbfq4tq/5qNmve3L+e5fk3H8Tj6ORcb86p0748cwqU4e+5ItA2+mXrn8tr39gyN6yuQ+QfVTiBimFf4cBZ/8BNdmLlADzePmcv2sYfovA/d/F/jUPMS++xB+duUnKsiV2wKCOYPP4Iu1QLc+J4hF78A78UBUFdqi5vxoG9D8FSt45SLrKCjF23+o1yHpz4EXPNYjqb1GzyYiIgrwhS98AX3f/99JwS4ryCXPSZl0HO561vgt8v9DmDXv3FvBNzhi10WaZD6HjVsW4PE9ySfinhcOIS44PC9U4vNdF1GjEGnuNYNgepqIaLxJl0TpmiiBLUtaQS4JwCx6HAsOXsbly0Y6/SSW6GcU43u06fEFOCjPGenggnfwrsw/eQafa9fLHFyH/WuajTUlzN1w1HxOPW9958/Fhi1G2Rd0yaMvYP+6Ldjg1+Tp5ON45z7bNp6ygkaaZ93kN2INjJnx7bd90SjruS7Z93ewRZe7fLoeh5r0Nqz9U/vWBFh5XQff/Ws3jt+SJ3HamH/03/wzWZPBo07ORldjLnGymghoWfPSNbXwE3yq6GMUvLoFw+/34doHfcC8B4H5vw9M1y25bpqrgly4499jxgOHgeLpcu9FlBQM67VMING30Vt1B0r1JCKbsMkjEBXZ9Ido7O3EC0mRrkE885VmfL7bFcDyWQ8REVE63MGu0QS5hHWuYD9PSEyrScWatpezY6CLJp/qNhzEmqS/aHtfOBgCLzgCLlSIiPKcdEmUgJYEtiTAlV6Qy3A+ijNLnsRGv8DL3FIswH6smWkGsqrb2qCKLqnHKitAVX0f1uEMovbhl+x/gFizHzgTNb+Xpez+F9S6jr6wH+vuC4j42Os173POAJzwqtv5F3EIHvvjtS7Zd7W8rqe0ZjupA3nW/klZe16eE37758WvThPUtViRkQpxdegafv7msxjq+yrw4gPA5XPAfceAm26PB7lw6934+PgWFIz8I2YWX0ZxwTW9liC6dVWPtIJKdOUbfOaL8a59X4w3vUoum3jOoFpSeXUJNJdrarLWKa21e9FcauTd/QZr6tDY24yvZNp3b/AFdPY2om5UQa10jonBd78Ntue++Mw7eqbmWC6Hu5ISEZGDPdg1miBXNjHQRZNS9cYnccbjr/OeFw5BFxxBFyoyPsrlo/6tBYiIJjgJZElAywp2pRXkCqUabeoPCffhBfU962y55Um+yxcdQv1p6w8Q9lZi1bhv3X68cPQoXti/DkFxrtQyqJubbn0V/yPLZR3ICxK4f/lvKFaCn4zMwtWY+f76+fXpuH7pdeCLe+LdFa0g15UjTSia8WncVHIVH1+7SQXJwulF8x8Bfy5/Je5uREdtAb6CPzf/amxM9zbvtgVhbGXN/oO6C2IPmkrNllRqOeO5t2rt3RN78dYdep2xbjRa3QeT+g3WoD0WRUNnaXLQyGbwmT9CR1UD7jNHO3CytwjzpINsgQGmsMckaL+dz/05Om3DMchznWiwulB2A3+UaXCPiIgmPQa6aHKauwHt9Yew50U9PZoLh0wuVIiI8oQ92JV2kEtaRZ08hBf1Xx3Ov3jIHKPLYnw3N6v+3xJUOo0nl7habgnpgih/hPg1PS2sP0oY3OtUf+hYswZnntw4uu9qr7phFerxODx6xydT+x6yrFvA/sH6Y4tlbhp1mgCkVda0gp+rJN0RY1NuxrXaY8AvlSUFuab+8+X4xWW78cmv/TZGYiUqSBZOFdr+fBNUzEhaVBnTDVYESU2/hXfiMRhb2cgm/GFjL96OGvnBd4xStpZU9ucU2zpTimDT962gkT3YlQhQlTZ/Ht3f1/Vw633beG8GsY/R1Q7vxl8hj0nQfstzVW3YrJ9T3S3NrF7OFnCr7TCqHVxrIiLKDfbuivZujOOJgS6atOZu2AI8rgc+FkEXDn6CLlQkeJbFMbqIiHKVBLa+/vWvq5ReS65qtElX8UVmq9imdxY4/8hgfMcaT5otZmcuwqH6dmyQgJYecN1sgQsctN9dcO4GbFmQeD55natQv2QJ6q0v/Ex51W2uOU7WmTW6bkayBqNPZuz7aWfZxID2AYL2T55bZ7Yyrv7vP7FmJtdpAge9ZJytTxV/rJJ0R/yFX18PDP8c1478NoZvXozhwptw5aVGFE35BUy5JYKffX87PjlvRobSu8F5Jgbxzls6OxYim/DnbVXo6LIiXSECVJH70FDVgfgiOa0xMei+JI6KT0SU89xjcrnH7BovDHTRJCYXWOvMbKoLI18ZXqhkQN11sbQFfX0tKA3ovkBENKFUt8VbxB5ta8NRCVoZ38nqUbWWSrSYPWr1BXe0pNWtaOPLyCpty1jrlDLi6B48jsQfNhysddjWpbinFZ+6SVnb/LZ/F7AuV9nL7m375IP2z3ru6LZtvtu50YPRj4mCYpTM/3eYcuUHuPb8Mnx84fu4/H/24PKhBzD83gsoiT6Lj779AH7+A7NznGoFVnhV5bOrF53WCPD28bAin8PnYQswDT6DP+rIYKysnmds3R0H8UJnL6ruCO6I6BTBpj80uxq6x8p6ZizOI4L2W57rbcZu/Zzqbmlm48uxuyIR0cThN/B8LgS7GOiiScV+MaDIBVbQhUOICw73BYS1PnN+BmN0RZrRa5wIursfqLsu2v7SyT90EtF4W7x4ceiUK9Qg9Fv09zRNQLpd1h2PAMW/gOLPLMLwZ38LxYv+I6bOW42Smbfjlyofw8gdm1D4mcW46TefwS/+yh24qejjxLJZVYXPv/0Vs7udGn/KallVg3bd1dB8Tsaf8usWWIO6Rt1tz/1XrJrP4e34+FmlaP58N76/KWyXR62mPd7t0VyPkb4C3BevjH2MLtfA8mkL2m/jOT2+lzz3FTQkui7q5YyKxOuRdCyIiCinyPmdO8hlsYJd43UOWBAbuph8L0aicWAP4pgJuH79uspfu3bNyJuPkoaHRzA0PIxXT76FlavW6DVMTE899RT++I//WE8REeWOr371q9iyZYueIko40nMQ8+bOxrRpUzFjxnRMKSnBlCklKC4uNlIRCgoKVbAiFjN/x63fdSsvv+UjI8bv+cgwhoaGcfXqJ/jmvk60PtOut+DtT7f+Bn7v9uPAwkcRG/4YsXkP4eMf/DmmRh7AyE/extS/O4KR+Y/g4+82o+hTc/Cpf7EJsb99ET9753kc+tuFePhr39Nryga5G+Ef4Y7o95Fu7ImIiIicWjY14cE1tercQs4pJJUY5xdFRYUoKiwyHiUVorDQngoc08aphzr/iLfomj1nqc4FYzlvLOct2+XmV9yjc0RERJRryheG6xe54M57dS4986tb0PfjmYi9/Q1cnR7BJ1d+jKEfvoKRH30P06cAP738IYbf78P0hb+PqYWfIPaPH+Bnl/4WJ398E8pXtui1EBERUS66v369zgVLFRdgiy7KGYm/+Cb+8ssWXURE44ctusjPeLXoEr3f/SsMHN2DkZ/+rVqXkEHqr6MI12Lm33Clk+LUwqv4JDYdBTfdjs+v/Peo+s3fUs9lD1t0ERERZUs2W3Qx0EU5I3EinDghniyBLiKiXMVAF3kZz0AXERER5R8GuigvJU6EEyfEkyHQRURENNEw0EVERETZNCZjdBEREREREREREU1kDHQREREREREREVFeYKCLiIiIiIiIiIjyAgNdRERERERERESUFxjoIiIiIiIiIiKivMBAFxERERERERER5YWC2NDFmGRmz1mK9y+eUDODsJw3lvOWTrkfX+iz3YLcvA359evmbcnlNuTXr8dQesdynHnjJQwPj2BoeBivnnwLK1et0WshIiKiG+FIz0HMmztb3QJ8xozpmFJi3ga8YlENom9/FwUFcovvAuM33Pwdt37Xrfz8invwg1PdGB4ZxtDQMK5e/QTf3NeJJ3Y8pbdAREREk8kT27fgvz33bRzt+Qt1TiGpxDi/KCoqRFFhkfEoqRCFhYW449dX4p0z3zXyBWraSsaphzr/iAe6iMZb4kQ4cULsDnTJoyQGuoiIiMaPX6CruLjYSEUpA13yWz4yYvyeM9BFREREBgl0PbimVp1bpAp0JZJ3oItdF4nszu9F9cyZmBlPzTiqn7phpA7Ve3HenSciIiIiIiKiQAx0EbkteRKnL1/GZUkHgTXjGWiauwFHj27AXD1JRERERERERP4Y6CIKUn0f1p18B+/qllV7m22tvBytv2zzqpvRXG3Nn4lmq0mYo3w19kr0LGm957G36XGcPPk4FhnlqnfudLbuci+vZlfreUZi6y8iIiIiIiKaxDhGF+WMxBgeibE8sj1G16VLl3TO26yfdqK6CWjXragkiLToUD1OtwNNix7HgoOX0VYtJY+ieaaxXT2tyr2zBZc3RlG96BDqTx/FBlnB0WaYxe7DCzNfwH2X26AWl6CVbCdpvbbnpA7xfCn2+C7/Drbo+Uebm4E2XcaQan+JiIgss2bN0rnUOEYXERERZVM2x+hioItyRuJEOHFCPBaBrsATeQkgLXocJ/Wk6sboCDjpboRe0xJwOv05PGWfrwJiT+Fzf1WPQ79lW6+yDgeTyhvs67byOiCWtLwKoK3BfpVPBLiIiIjSkfL30YWBLiIiIsomDkZPNJbsY3TZA1CjZV+vSmkGpjyXr0abykvAy+r+SERERERERDQ5MdBFlIm5pVhw8nHs0VGl8y8ewsl19yUHro6+gP1L6rFqmbN8SjIumM4qru3Fnd+LZjVYlwS8TuPJJWcQ5SBdRERERERENEkx0EWUkWq0nX4SZ9aYg8AvenwBDlqDbOmB5NXg8DI+l2oV5iwfOHD83A3Ysm4/1hhlqv/7T/RMn+XnlgKPL9LzFuFQfbs5NhgRERERERHRJBQPdM2es1TngrGcN5bzlu1y8yvu0bkxMncDjnp1V/SaL/Mc3Qg1RxdD23xHeSPJ+ny2V91mljm6bVviea/lJQBmm3eUUS4iIhpH5QvDdcpfcOe9OkdERERkur9+vc4FSxUXiAe63r94QueCsZw3lvOW7XJn+1/WOSIiIso1A2+G66N/5o2XdI6IiIjI9J1Dz+pcsFRxAXZdJMomnxZaRERERERERDT2GOgiIiIiIqLwzu9Ftd9Yo0REROOMgS4iIiIimnCqrZuzzGxG2Jsapy1sQEfKSV2anTU52qxvHqOnz++t1nU2U7W6c7J6wrY/ZoqvyuO5mTOrsfd4iLqNNiA12uWJiIjGAQNdRERERDThHD39JJaoG8DYbvwynpasw7ozT8GKXUmQ6KkzS7AkPlmNRYfqbTesOYgFjy9KBLvsN7PRd1qOB7scN7qRdBQbfk0/R0RERA4MdBERERHRxKZbHu2VFlS61ZMVJHK0orJaJzlaSVWbwSnHOqSV2HnsbXocJ08+jkVGuXhAytfncF89cOhFs9zRPY9jQb0xw5yCMYkn2+3jeFaj7fSTskByiykZ81OCXU+NpjWVR/299tuoW7N9/1QZeS71/r/ocbzDHVufckRERFnAQBcRERERTXwnH8c79+kWTwfXYb8Eic7vRdPjC3BQt4Q6uOAdvCuBnUXvYIvVOup0PQ416YBSfB3SSmwuNrRbrcYu4+iG1LeambdhCxY8vgdHje0+deZJbFylnzgfxZkl9VjlXsXcUiw4KXXyYH9OB5usoJK9O6Q/d/3f9dlvHXCTeqvg2CHUnz6KDXNT7L/X8Q59bAPKERERjRIDXUREREQ08S15EhutPozzPmd2GZRgEfZjjW5FVN3WhmoJOql5Omi0SFot6YCSfR0ZqcZ964x1G+tcsCWLd2HWwSYVFJKUyR2eg/Z77ga0P3nGeG4RDtW3I0RMz/t4hz22QeWIiIhGiYEuIiIiIspT1WhTwaH78IIKquhuc+7AURbH+are+CSWYB3us69Qtc46BN2rMUG19Poc5ulJh6DnMhWw33NLF+jcKIU9tmP4GhAR0eQWD3TNnrNU54KxnDeW85btcvMr7tE5IiIiyjXlC8OFKhbcea/OjbHze9GsBn+SgNdpPLnkDKKQoNPj2GONKZWKX0sjNcaUxx0fZXytpKBNNTZK70BH9zzpvvc4UL/Ko3WW+VxWWoXFW20F7bexvTXAQTVAfpNzvKx0WloFbsMmbDkiIppU7q9fr3PBUsUF4oGu9y+e0LlgLOeN5bxlu9zZ/pd1joiIiHLNwJvhIhdn3nhJ5zJXrbq7ydhVHsEmy9xS4PFFZve4eLc8c0wquauhOd9IfmNezd2ALdIV0SiTejD6YHM3HMXp+kO2sbZUZCkx9pXaF+u5p/C505fRZkXLHM9JqsbeH7rnewfdEvWf57PfR9Gs6iLBOePYHFxgHDK9rrT3P+yxTeM1ICKiSeM7h57VuWCp4gIFsaGLMZ0nGlexWMyVgOvXr6v8tWvXjLz5KGl4eARDw8N49eRbWLnKODkL6dKlS5g1a5aeIiIiIpHu7+ORnoOYN3c2pk2bihkzpmNKSQmmTClBcXGxkYpQUFBopALjN9z8Hbd+1628/JaPjBi/5yPDGBoaxtWrn+Cb+zrxxI6n9BaIiIhoMnli+xY8uKZWnVvIOYWkEuP8oqioEEWFRcajpEIUFtpTgWPaOPVQ5x8MdFHOSJwIJ06IxzPQdezYMZ0jmnxWrFihc0Q0GTDQRUREROOJgS7KS4kT4cQJ8XgHuhYvXqyniCaPU6dOMdBFNMkw0EVERETjKZuBLt51kYiIiIiIiIiI8gIDXURERERERERElBcY6CIiIiIiIiIiorzAQBcREREREREREeUFBrqIxtuFfaiv34cLepIy8MpWzJkzR6Wtr+h5+ca9j3zfEBERERERJYnfdXH2nKV4/+IJNTMIy3ljOW/plPvxhT7bnZnMuzO577pYesdynHnjpRt710UJKCzbgdN6PvAQ9l/cheV6atRk/S1A66GHcZuelSRMmVw3ZvvwCrbO2YPI8UN4eKwOjus9sGj7cRxaccz7feEoa3uvSKBq3XNqrvLQflxsOu9ah1iE7Un7YttH6OPYCrSM0XuCd10kmnyyddfFikU1iL793ZR3XZxfcQ9+cKp7VHddnPm1D3SOiIiIctHlx27VudTkrov/7blv42jPX6S86+Idv74S75z5ru9dF+OBLqLxljgRTpwQuwNd8ijphge67AEFCVjsieB4tgIMYQJAYxYkuoHGah9UYGkQG7MZfHRwB9KM6a3ALglS+b0vXPt6YV89lu2Y7wiQviIraYpgT5hj4rWPY/ieYKCLaPLJVqCruLjYSEUpA13yWz4yYvyejzLQFds1X08RERFRLinYejbtQNeDa2rVuUWqQFcieQe62HWRKF3LV+Kh04N4T/ISbNDdyebM2QrVa07m1W/F1nprvk9XM/e0QQIi1jJz5tRjn3ryAva17MDp0zuwzJhfLzMd27XK2fjVQT3lsQ1dl31bZZ65H/7lEuvd+opRt3he1q7LuJcLuw+p6pHUVe8VbFUtop7DOnm+9vdR61reuR3v18hzPxzmY248mrQcu3Z5hNTs7wuHCzh2GNh+3BmIW74rbGDOex8dx8HzmBMREREREU0+DHQRpenCvj14blEEt+sAxPz9F3Hx4kUc334W66woyemziLSa8y/ufwjPrdMBlhRue/iQuYxabj52tMtSt+Hh1u1YtGg7jhvzDz38nrFdad2jyx1fjcMtHmM1+dTBextSfgcGV8p8MwDjX06vV61TmhTp/B6pgxwTr7qlsQ/2elzYhxbVEsost3++O5C0HLuOJ9Z7ce9STHXsR4jXyHM/7JZj5UM6yOQdBVMS7wuXC8dw+LQ9UOaig39mkMpIScE8j33Uz5j8jjkREREREdHkw0AXURi2YMSyw6t197TzOLtoO5p0s5zbVqzGoueOmAGtRauxwgpsSEsfnMX5H+npIPaWOTKe09nzyQEL2a7VukeStPbxaknkVQdZmd82bPui+JbT6709gkX2vDwXtm5B5ez1uG0u5qtyZpAuVCso+/JhXiOv/XBZvksHkVYeMesbD5Z5vC/MZ5y8AmAWo34qgGWldLsihj3mREREREREkwADXURh2IMRYzAmkiKBpWWHsfq43o604tFPJXEHR+xjNwX5UchtpFMXt7B1C1VuOXap51biiArkhGsZN2aW7zLqsh8PxYNlId4XEqw7fRjHxrKJVabvByIiIiIiojzDQBdRplQAYwesHn0Xjh3G6YdWJgcYXjmC56TF0GeNvK2ljSqv83FWyyJD0vPWsq7thmKvQ9A27MKWs0tVt3T34cI+bFUDTknA6zi2L9Kt0sIK+xoFkaCfvcuiaiUW0EIryXI0bQd2LHMG6WQw+lS7H0rQsVSt8mzbSTVNREREREQ0wTHQRZQxc+yks+t01zUZS8oapPy0bdyldcB+ae1z28NolTGi9PyWwfnOVlLG8xvnJ5ZzPC/P6XGi6vfd7tiuSknjOhl86uC7Dbuw5ZI4j4mjbpnsw21zJUKkyyzD4dWt+s6HYQW8RmHdtgKrz65L1FNaurUGtOqT4JHqPijHzwwiyXhnanwwax1GWgcdcLO/TiqlO5h8wDEnIqLRG2xDVVUbBvVkklTPk4dBtFUVoKCpR09PQD1N5i3sjTSRd2NCyYdjzvcN0Q1REBu6GNN5onGVuP144jbk16+btyWX25Bfv24+ShoeHsHQ8DBePfkWVq5ao9eQWjq3Tz927BgWL16sp9IggQ4Z23ysujiGkQt1oAnr1KlTWLFihZ4ioskgnd9HcaTnIObNna1uAT5jxnRMKTFvA15cXGykIuMiTm7xXWD8hpu/49bvupWX3/KREeP3fGQYQ0PDuHr1E3xzXyee2PGU3kJqM7/2AWK75uupMSSBrLXAgd5mRPQsB7/nZX5pC/r0ZGVrFL2rD6t5kHyzLm1f3msZKZet+YoEmUrRglZEvfZJL+tZxwPAWtt6gUZ0x9pRE7SMxzYG26pQOrANsc3nbPXU61L5TPWgqeocNntss6epALX9PvssyxXUokNPobEbsXZnTZzLS/mdKI/2In5YhQQxamHbDynXhTrrGNlfZ59jkyxF3fSxT7wmotJ4KVx1y4j/8XTyK+czP2n/5T2pZgTUWY6DxzH3od5jLc6j4j524d8T9vemfb4hxOvR2B2DWSS9fXCvK/E5dtUh/nr7zdeTcX77punthv08p8/YfuD7yrUf8WPsXe8wrzWNj4KtZ3H5sVv1VGpPbN+CB9fUqnMLOaeQVGKcXxQVFaKosMh4lFSIwkJ7KnBMG6ce6vyDLbqIiIiIiLItOoAK4wLXDO51o6JlLdouGvMrG1HRaeS9moB5LSPlsjVfDB5Gp3GR2Gj8/7BXHURQHStbEVXrNVI3UGu1ZgtaxqEHu+UaerNxERppRm+0FZVqna6L7TTJxW6B4yI/QQIaO409rtTTSXq6JDqlj1cUrf07HfuRtPzgOfSjAmXuq/SadnQ3dmCnXniwbaexXo/9kv0OGzBIUTfF/pqoFDKQEiDoeNr5lQtcPrIaDfb3n3pPNmB1UJ39jrmPSHOv7XjEjNfFOEzlpfrZ1O+JniYVsVTLRlv7UWs1v0r39TDe3/079WckzX0I/Bwbde+2tuF4vf3mWySomNg3x2fYLvTnOT2h3lc+x9jvNUn1WtPkFA90zZ6zVOeCsZw3lvOW7XLzK+7RuRx228M4NN4tqXKhDkRENOmUL6zWuWAL7rxX58aQtECoakKTdJFT3YR0dzl7lyEpY0zLvIKCJsR7Etnn21tnOMpXBV8E1rTrVhyiFOXxK+pybN5WgZbdHv2W/JbJ1nzD4OFOoGEz6ir60Okb6Qqoo11NHRr7BhBVEyGXMS5iOyr9gxrmhbA+xml0CVUXuxI009MWWd/O8ih6N5frOR4cxyuKgb5EMCJ5+R40qfdEB2o96ljTrgMSPW1Y29kAiecZa0HbWmOZvhaUGstU/eFXw3d3DahbSo73a3aOp5tfueDlI1jdgMT7LzpgvCdXq8Cf4/WPf8aCj3lKxnHY2dGIbTrqk/o90YMuo3ydPu4Ro7KV/efMbab7ehj71ldRZuxbBvsQ8DnOnNQ5sW/Oz7BdwOc5ne9Bl1DvK89jHPCa2Llea5p47q9fr3PBUsUF4oGu9y+e0LlgLOeN5bxlu9zZ/pd1joiIiHLNwJtHdS7YmTde0rkx1teP8gMxxLob0VEr/W50XrWwMC88rRYTiRYCzvmJizKZP4BtVsuBaAM614a84LZarMzR08aFXDdqg8fo8WvlMqr5g1BxLmOipq4RfZ2H/esfoo7SYqmjsty4BNfCLHOuH5U6qJHEuEhd21IBq0VKd4V1AW4c+/iFtT3ZgpMeJKCxFgcS3a8CWYFQ3dVQ5nguX4N2eU9YrXaSWmbVYHMr0FJrHPUD1nMRNB9ILNO77tNqrinMviXXzUEH0OLLqiCK3/tYZHY8sylSVoG+Af3qdnWgQkeLVCBEv/6xbivQ4nXMw+9Dj9mEMOA1TSFShgpHMCiN16O232y9OMp9SP5864CZkaockSa/+Xb9OBd/SgJo9mkbz8+zvK/8vgez+b5KcYyTXhOT/bWmiek7h57VuWCp4gLsukhERERE+clqOVRablxg2vLynHQjMi46zRY3xnWTtBDo6EKPa36c6naUuIhULb08W0K4yYWhPehhqtls69KUxHuZUc+3XyyrlhwB3RcNnnW0XcSXdjYkjW8UvF8pyMWrOsbmhXFNu3WBW4N268LakTwugOMkqNdnVLfU9noZdfdtSRNBc6+ssw5dqpVKussnSBAnvDD75q6bnm2xgidWktfE732sZHI8s0zef/J5M47muX5bCyN7a6HaDsCr1Y4Sch8cLXwyf02d0ng9AgPiYV8H9+fbvpy9S6PffDujjNSpVB/jglK0BLRKS/o8B34Pht2fMFIcYy9szUU2HIyeckbyl+L4D0ZPNFlxMHqiySUvB6OXC2Zr8GSvvAysbh9cWeZLS4VoOXa653uVt9jXrWclGBeo9sGnXWWldcluNKC/0768a5m40c+X7bkHbXYOVG8IqmPIY+C9X6akFjWex0/qLuP4WANOW9NuroG0g16LoOdcZPymrjprAHHNvnzguqSuXaiTsY92licCgb7Lh9w3LalufnWRgfH9tp+N42nnVy7F8j1NVThX14DOrjL0yg5JeQnoeH1ektYVbh/UWFzSTdH54TD51k+/htZ6AvYj9ethW1dG+yBlvD7fFmn5pFbqet5vvovXvrnmhfoOUMK9JkHH04t5jOUDFfyaBL7WNC7GczB6BrooZyROhBMnxOMZ6CIiIpos8ibQJRc/qluN66LSM1+G3cZFmXEFpi5SVRBI7gTYDseFpZqvWi45y8d5XHApqi62i3ZrnqOsvjCUFiBW3dzLiKzMlwvfUgxss9XfHQwRQXUMHexz7ZeapwUFYIx80+HVaFeVDnmhbpdUDxvXduLvE/VUEw6vbtfb8QksuJf32Y4KCpT1GsfYdbzt2wxY3i1l3XzX5Sqbxjbj3MvY90EV0PzWnWqb6i6VHYm7ErrKJz57xnSqdXnxq6/Fvk5XWXsAK/HdUGPk03w97O/3dPdB1cnj822sswl6HCt7vf3m2/NqBRbzPdrZEBzsNvfT+jz7fA+mw71+V/38jnHZbu/XRPHdRxpPvOsiEREREdENJV14WtFfa3bBKZWxodRFkzFfxgbSXXvWDlTosY2c5VUK6PIkg773Gf+s9Uiq2v8P+lmLbKtR532WaRvMzvw//DN0wtWVLUT3RXcdwwlYxr5NdXGqu49Jd8VIGYxK6zrLBfgB5wV+ALnwjXdFM5YPHP/MxdysdazkIt4VWAirp0kFZsxjbI7L1V+rxyeKNGNbo9nlK/l94C9U3fQ+W6+1OUC4832sjo0uHkbY4+lXLtTy8l4w/sW7LcoxqkjsS+Kzl4lBdQOATMdrkpsKGC+WqkfiuyGD10MVCRnYcvH7fEv36/j3kHGMK6w7e/rNd5Pgm1qfR5DLk/3zbOTT+B50C/O+8DvGfq/JaF9ryk9s0UU5I/EX38Rfftmii4iIaOyl+/s4IbouUs6Si11HawwaexLc6KrjMSeiG4YtuoiIiIiIaFKINB9Aa38tCtJpdkVpk+53ZqsYI0nDGAa5iGiSYKCLiIiIiIhuIH1HNQZexlRNu9WaUhLHLiKiyYOBLiIiIiIiIiIiygvxQNfsOUt1LhjLeWM5b9kuN7/iHp0jIiKiXFO+sFrngi24816do6yJDzAdMBC7DP7uN3B0mOUniqD9JAqL7yOiG+7++vU6FyxVXICD0VPOSDStttL4DUa/5xv7dY6IiGhi2/jIOp3zN+kGo7fu9qcmGtE9Zt26etBUdQ6bPe66JuMn1fbL7fq97simb+evp9DYndTNz7l84hb8jhuoufczWo6d9tv6x/ksH5ZjO0Blq76Tm2N+JVo91m/fD8gg9S2uewPa912CcTLWVPz1knp3oU6mZVvWvtnzqlwm/F87k+s1cu+f65iIxu4YMu6tqfbd3Fr8+Cax18n+vvaZ7/e6WfTzxo4l5o/22Ibcpvl8tj+bfsdHc2/b9/OSrnS2K7w/K5kxth30Pra9rxTr8zbK11ndcCLosxxnPzaGeJmAYxbqs0C5YDwHo2egi3JG4kQ4cUI8noGubY9t0lM03t5//33Mnj1bTxFlR768r/j5yE/W63rlyhU9JzPyezZpA12pLtRGeSGXSvxCrzI5mCXBnZ3GxRv6y723b1zINaFdB0UG0WZWNH7hm7S8ulAewDavoIB9P/32OWj5MBz1lQtUCZodANba6i0XpzvLHcci1XFQz5c7L2Tt8+QY7y7rNbcbZj9DCnrtEmQ/dZBNz3Fw12E0dVIX9vYAnzc5Nl11ZjAtcWfLUuP9U4qBbTrIZn8dPF83V7Bu7QAq0I9y63Uc5bGV7QduU4x2Gz68j4+qSIJ921mqR8rturcj06P5PGqp3sfm8xWO91VPUxPQPrrtevH6LCuO90Piu65st88xC/lZoNzAuy4SEREREY0juZhSfwWWZHVXkgtOa15BFdrS6MMUae5FLNqKSj1tke2oC77N5XqOhxrrwk9EMdBXgTJ9fZi8fA+aVGuQDtTa656KXDCqfcpweTtHfUtR7t5pUVruOBYpj4Nx7Hd2NGKb68K4pr0bFS1r0dbThrWdDdistmtcIK819qGvBaXGPlTt/wdj3gB2V2X3tRuV6AD6KsrM4IlxjNuMC/+Cgibj1Uutp6sfrdFUF/Y96DKOV50uFFndgMr+c8aRkfdPYj5q6tDYN2DMlXyI1w3l2LytAi27vWoqgSrrGIfs8hpqm06en820t+13fEKyPi/H0n39MthupAwVOmvK4Dgbgt/HgzjcKY31nO+rGglyqX01tpXxsXbx+Swrnt91/sfM87OgPlNNaIp/3vOg+zWNGgNdRERERDS5GRdKa1XLBrPFWXeFBAIkACStKnSLtGgDOtd6X/glUvCFr1ywr8WB5FYNnqR1g6wz0WrIe/katMvFrLTakHqGaX0iF4aqVYS0pPFaPrP9UwYPoxMNWB2ROytuw0CpXrbUmHvArFuY49CzW7rMbfYI7tRgcyvQUptYn3EpjOYDiX3oXfdpoE9aIZmvnbF7aBnla+dNBweNVOUVSdOBN7X+WuMC3YzKqfkDdVI364I9qE5y0d+HFus4GinURbwES6yAFvpxLl49CS7Zp7X466an7Wra0Y1a13bl/aneRObnw0hmwCKN4xu0TYvnZzML23YcnxTsn5c5xnRar59LmO32dKGjstx4pUQW9tWLHHtbAN3BeL0TAbLRb9//s2xJ/q5ziB+zgM+C7fMe625ER23I40B5K38CXaffAp59zkw/OKNnEhEREdHkYbv4klZKtkCDZyDColpQSNDCvDhSrRoGz6HfFsgw12ddoNagXV/0OZPHRVqctKDoM66RS531821BJYEiWWcdulSLpHSX9yHLpOwWlcn+CeP42wJaPU3WBXIUrZXGBapqFRRiPwYDWoAYImXO9i6eKhMBFNUiZFSvnRf7enQrM/cLYQUPJdkDpcZ8K+ZlSlUnGaNIz4u2oj+ti3hj3bLteHCgFC1JAQ7n6+alZrOx3Z3210iCVO79EGGPb+ptKp6fzdFuOw1en5e0X78QZDvq9TGSvYvvWO5rPJgWYLTbT/FZNrm/6/RsTz6fBdvnXbVadAR3aTLKj0DX174OfH0fcLrfTG3PAk//iX6SiIiIiCYH28WXvZWSkYJbUVnLyYWWXGxaF0+2QIVK1kVc+NYMCdbFnE5W/VK2wKpBXWMfBqKZLu9iLNPd2o/awGZBmeyfLGMbb0kucPutC2SpexSt/TuNi9jU+xHcAsTYjsTPuitsrbTSkcm+pRKiC15gS5406hRZjQavFlluEqi1AhmRZvQ6jrc9wOF63fwY6zjQ0Indh/W0rzD7EnKbis9n01Max9F+fIJk+/Pit135DFivT6oWX0oa2/Si3o+dOJxxMCjc9lO35rKzvuv0pMXvmFmfhYt6mshm4ge6JMj1ow+AP20F9u4y058Z+fPGO57BLiIiIiJKZbANTaoZgVxUS+sj4+IJciHYAs+hieIX3+6URmsKO+kaZbtAHGxrsrVqkO46lShPeUUeXmlzr+qK5t/KLcX+ueprTrsCF+pC2nb8grpK2UmALKAFyGDbTqDbqEfNZrTC9fr4BAgGD3eir7FOvzYZvnbufZZBtNPZN0d3NLegOsnFfwd2Wq+VfVuOOpnlunSd1D7LmGDmpDaoxjJDw2pzvtfrFiDSvA1oaTHvDihBBvfxV8K8d8JvU8onfzYz2XaY4+NtdJ+XNLcrQcluxFuwZXycU9JdgEtt72mDDEbv2NRotm+8dkmfZcd7Via9vuv8jpnPZ0G6k9qpz1qKLrGU98Y80PWjH/8DTvyfM/je37ye9fTan/4v/H//+yS+9+CX4/NkW7JNFfDqHwDeNBIR0WQgJw/pdmGh0eNxp3HS3Nysc5Q2+dzGuzYaF12RMrni0y0SStHZcMC4CDcu5KLSNcbWWiGNz7oaQDu+jfQGRzarY21Xmi+FDAq4ufdTzxbmoO6lwV06Q1IXosY/+9g5VW2lzuMn3dRSDqiuAzF+LUB6mlAaH4A+osblinddijRjm3ERLF1N1WD0+rjLtmWZaGLE65RCvXal5bZ9a0GFBN/0U3G2OpgvY5qt77Sa9igaOq2unv7HUV5T4wCY+yzjWln7bA0urt7biTvfeb9uQe8H4zPR3ajz1vFPLBvmPZ5ym6E+m5lt2/f4WMJ8XtSNDtKTcrtuNe2ISisy1Y0vs30Vqd7HMli9uZ3EumthBYQtmW4/xWdZ8/uu8ztmvp+FLH3WKH8UxIYuxnQ+qz7+2T/hrw7/b7x7/sd6TvZ94bXXcOv77+Pw/ffrOQnz5v4qHnz5CEoqvwA8/Dt6LuWy5L8IANevm7cll9uQX79uPkoaHh7B0PAwXj35FlauWqPXkFrY26fL7di3PbZJT+UA/cOLVttteWXeGNx6ORdZt9mfdJJeYxms07ztsucFzyR6T2RDRu8r6yRYT1bKZ3L14XE97uP++XAdE9HYbQ1Wm2Vh3uP2MhP4M2G9rleuXNFznOxBrra2Np1LJr9nGx9Zp6f8hf19tBzpOWica81WtwCfMWM6ppSYtwEvLi42UpFxsSG3+C4wfsPN33Hrd93Ky2/5yIjxez4yjKGhYVy9+gm+ua8TT+x4Sm8htZlf+wCxXfP1FBERZY0ER+1jheWyCfxbn+8Ktp7F5cdu1VOpPbF9Cx5cU6vOLeScQlKJcX5RVFSIosIi41FSIQoL7anAMW2ceqjzj3iLrtlzlupcsDDlJMj15FN/PqZBrlRk2wNnL+CqcfLkJZv7K1jOW7bLza+4R+cmocpGVHR6DHRK+Us1F7eNn6AGBGVT7PHTYw6cG7Uu2rtRkTSQxCRljS0iSbfgCPsX57RIl450TmTTLT9BuFty5VLLrvKF1ToXbMGd9+ocERHlDj32ltwlNNWNAojGwP3163UuWKq4QDzQ9f7FEzoXLEw5ack1bdo0lb/pF2dgyRfKsexLd2Y9/crq5fjszTfFp7/3PeDkSXObouDnV/Hyz0ZU3i2b+ytYzlu2y53tf1nnJqNybN5Woe9Y5KSaJsuPkkr6biXy142qJjSp2/XKRad1617bBaiUcS9HOSSC1Q1ApxXpig7Ex9XwfM0t6rW33xnJNs3XfJTsY7DUoN3WbOlwk3Vc/T5juhtE0uthdY+Qz6izq8SEJMElCXZZd+fyec853sPx96tzcNumfeaxalPH1jg21rFTj4nvN1XWPLiqq4TVTaPqD7/q8953vhbm+u3ryV1+LblyJdg18OZRnQt25o2XdI6IiHKHNfZWht2lx0Oe/lFrsvrOoWd1LliquEDWx+iS8bGsllwScNrQWI/ae5fiN750V9bT4t/9bfzyb1biN/7yf6ppCXS98ALUNn+7uxsf3HorXhsuMMfsIsoHNe1qMEz3hZj0sbe6g8TkLkRWMKyvH+UHZF4jOmqlTa/OqwtQaZ0it0vWy9lve005Q26h3qdbDfV0daBCR1l8X/NAfM1HxxwEVY1l4f4Q9rVgoM56PeyfMRm3xZyvxsGQ5dQAzeaAyTJWSUUj9ICrUQwgxB2gJoL4Pvq85wbbsFbG3NDzuyukrAT6ZGANXdZI7cuMdcWPrWtMGuv7Tcqq7zgJXpljiVh32utd92ld2Oe1EJ6vXe6zglxB3RaJiIiIJqMxCHT9vc4B88vmYNq0KXpqjDz6B8Dc24CvbEIHvoNv4nlMa9yMos+Xoa+qShWx14looqvZbGspYbG3VKjtAPrPmc9bdxwpLTcu/Gx5eU5u1Wt8auIDUMoYO6FuZ0w3VE0dGju6jMv0QZzrb0SddaXv95oH4Ws+ajXtOiBS12UeQytYUmndQt9g/4zZ5kdWN6BSvZYSMDNvDR8dqEDd5nL0S6RLyoe8A9SE4feek0CYmm+2rKppb0eN6pprO44W+7G1s99RST4nxpZ8b7fv+1oYvF67HOcObjHYRUREOSF+44PcbyFN+S3rga6rnwzpHDBjxlSdG2MS7DLSSczGq/gssPkR/H//5rf1k846EU14kWYcaOjE7sN6WgIe9nGDoq3hL9SMC7z4uDoqed/Fh8aTDor0HEZnhb4TDl/z8VfTbhy7bh2ETF9pOTAQ7UFXfzlKZSy2fmM90QFUxCOZE5wKLOnWaZ7vOatrRB261AlxHnTZvEH8gloMdqXJ+mOB60qsR7qx2ru7Wvms6HF0zU1qGWpwbD/OWM49z3YxmXSXvKR6S2tJ+7AG2dsnZzd6ndR+ufbVq4u943lJ2fweSLF9i+04qmS9Jtk4Tq59jL9OfvOT2PfB69h4vC+CWNu9oe954Xot9Pb93jv+7yktqY5j9/4Wmb3HpU725xIp+K6WwZK+H4K+B+Ky+T5KtV/GumRsL31+ms5NaUJ/9ylh65zOvlG+yXqga9xUlOOb+AKexSIjzzvwUH6LNG8DWmx3ObO1bDBv2xyC6lrUglA93mhc1dRVoKW2xRkESfWa21pqxZ/naz46cgLtONm2BXO8uI63eh0azWCltCjCzp3oV2OumWOxdXUB5XnRb9E4sZRugtuaEfF7zxnHskmdFEvAK4rWyn6cg9x8IcP3Z08XOuwtvNwtFQNeC8pjqS56KxvR2L8zcXFqlN/ZX5n4w0G2x30x3qeJrrnG+96+bYNc6O1Eo+MPF+ZFdi069LQiF7eql6+5rvjdmC1BNzLJ8j45utEbqbvROKzxL7LGeB09x/sZ8z+8BG9fHVvbcZTUDf3Hi2wcJ/njRfz17kZFi76hkN98l56mRFduR3drg+f7Iowb/Z4XPu97v/dO8HvKcAPf3yKz93gEzb16vvwx0vZeT/q8hpT0/ZDqe0BxDQnQDdTavhPTfx+l2C/Vits+lmk4ob/7DGHrnPFnhPJG/gS6iCYV4+JQfmmF8aO+rcIceFn+orJ2oMLxQ+HPWIcMGF1r+4sM/+qRm1S3LFu3xVSvufH8ATkpTnqer/moqJZXtYljJ63qAu9I5DzepTImlfXnzUgZJPrYoCMzMtnRX54I1Ew0fYn3Y0HBTpRHrb/k+rznZIdbSvW8UnQ2HDAuEMzxtexlm46rtXuzb1PO462LG/l86LHUqvZbY3QGvBY0iZWjznbDj57dLahoMGaoCd1SIv4d2eNovWGPeYdW025r4RDFQF/iglAuynaWR9G7udycoamLbOO9a/+O7+mSFhNBQSGfG5mMxT7ZSdCkoxHbMryQT8hyvTwN4nAnko6j6kbtPk4SMI3Xx6dlmBfH612KcutF9Jvv0IMu41hav/uqu7VtiIKk94UK6nrdoMMtjfd8pvvtFvC+j/N773jOD/n+zlb97fzqGZbUyahf/AYrenYqXt8Pqb8HhBxv2/mjnE/a/hDk/T7K9AYt5h+5+qCHK7BehxTS+e4TfvPdMv+MUL5goItoIvD6C5V0ndLz4uMGyV9UjJM0Vda+TFBeL6eSNZ9yjHGR7vpLd6rXXP3Au5+XBfmaj4LtL5kq6b/e2j9TwvczZn8N5TW1/fXX9nmecNzvKXfLCc/3nOx/Yl78L9Gusu0P246lsB9bR2sQ789H7x/9cfBrYV+fcE9T3itt3oaKlt3qjp47+1uxebV+Qj6T8YskV6sII5kX7s6ATCIFXcBaXX+6UKffh3KhtxYHQrb0kABIH1pKE9vzuljzvJHJmO2TSYImaN1s+ywmxufz7FblCJBb28hmvQK2L62AvAIuwnGc5OLd7yYuadTJ3urIzm++m2qVmmJMTc8bdCQL957P0n7HJb/v7ZLfOya/+anf39muvynt97gX433vvMFKcH28vx/CfQ+Y7ONXSmA1YDxLEa+fkeR9FPoGLeYflOKtvNRvaSb7NoZCfkYoP0yyQNcraJoyBwUpUtWeC7q85QLa7vaaT0RERES5w3ZhpW5+kAimeF+I6rupWt1t9VwHFYzwuimCM2CbSMkX8glWwFzGp5NWJtKyqM+4ttQtHK06B7aGsHWXMi4s+70u1vxuZGLJ6j4ZJGjiaOliX49P9zyvrotZq1eY7Ye4y63fDTXUk2HrJEEXrxbAfvMzFPoGHWHe89nYbzv3+17PFknvHc1vvkj5/s52/Q2ZvMe9GO975/s7qD5+3w9d+GmY7wFZtwT54gGxUrT4BXgt9vqN+gYtmexb2MBaBtK5iQ1NeJMs0LUc7UMXEYun/cYb3HjPP33cNu8iejfeZha3vNiOlhM6T0RERONrErW8evfddzNOk5PtwsreusBIfq0G5G7GlcYZYdLFckrBrRWCSbChDwNRV0tRq85h39/SpdqzhYbHjUxCyWyf/FremPy656VjNMfaY/uqhZRtnKcgXgE59USYOkkZ6c7tHiPMb76PVGNCpinUe35U++3Het/rSUO6rblMId7fWa7/2L3Hg+rj9/1Qh0/ppRXf7wGDvTWzWj5776PUMtm3yfHbTmMvHuiaPWepzgULWy6snN7u4D5MlVZeDzynZ/jL9n6wnLf5FffoHBEREeWa8oXVOhdswZ336lwOUBeC1kWwBzX4tdeNEoJaKxgGZYygxMXzYFuTrcWHdD2qzOAGFGZrnJ3WiqQFlE8LDc8bmViytE+KV8ubnqZEV6qAOibJVr1Sbr8Gm1tlqEDnvvQ0ufZNBcT8bpIRpk4ewazA+db2zde5S29X3UCjoix8AMB9gw63lO/50e534jgGvu+Nsmm35tKC39/Zq7/iVZ9M3+NJUtTHU8D3gFf9lUG0rW0xxzPTc8ZeJvuWAd99DpDqM0Lj5v769ToXLFVcIB7oev9iuCZLYcuFldPbjTyMT2wtv4Jkez9YztvZ/pd1joiIiHLNwJtHdS7YmTde0rmJIJJ8o4S0rqhMxrW3bUwddQeFlK15ZAybeJcevd2a9igaOq3uPp1o8BuQWnXN8Wu1k519il88u1u6lJYn1m3Uv6I77IVtluoVYvsylqW6m6HejqRauFsHGRfqUWd9Qg+yre547BxHSbrP+s13q2mXW+SZz7tvoJH0vpAbd+i8Wqf9Bh0ZyXy/3fzf9z7vHd/5LoHv7+zVP/vv8ewI/T1gDdKvbvwSdbRs9Xwf5Qiv776g+W5j/xmhsfKdQ8/qXLBUcYGC2NDFmM5nxff+5nUc/5s3VH7Zl+7Eb3zpLpW/EQqm/Jl6jA39bsh6yJhd69D/9PHk7ooOYcvRaCRH+4Hr16+r/LVr14y8+ShpeHgEQ8PDePXkW1i5ao1eQ2qXLl3CrFmz9JS/Pd/Yj22PbdJTNN7ef/99zJ49W08RZUe+vK/4+chP1ut6+vRpPSd98+bNU79nGx9Zp+f4C/v7aDnScxDz5s7GtGlTMWPGdEwpKcGUKSUoLi42UpFxIVGoLiZiMfN33Ppdt/LyWz4yYvyejwxjaGgYV69+gm/u68QTO57SW0ht5tc+QGzXfD01BuQCcWd5fnWlycd9GgsT7ThJi5a1wIHR1neivz/4/iY/2fqMUFoKtp7F5cdu1VOpPbF9Cx5cU6vOLeScQlKJcX5RVFSIosIi41FSIQoL7anAMW2cepjBzFwPdB3/67/D947/ncr/xrJfwbK7f0XlvTDQNbElToQTJ8QMdJE4d+4czpw5o6eIsmPBggUoKyvTUxOXfD7yYT/IyXpdGejyN3aBLhlXphYdqERr2DGUcl4+7tNYmKDHadQX8RP9/cH3N6XAQNe4YKArwH/e+Qae2Pm6yj+x7S78p213qrzb3//9VfzyZ//SzP/4d3Dm7AADXRNM4kQ4cULMQBcJK9C1ePFiPYdodE6dOsVAF+U0BrpSG/MWXURERJSx8Qx05cVdFyXI9ZsrMxpYgIiIiIiIiIiI8sSED3RZQa4zb19GxedvVq25Pv3pafpZIiIiIqIMyZg/0gXCSJkN1j5K4739MG5UHaXrUcYDik8C6nWost3hkIho8prQgS53kOvYS6sY5CIiIiKiYBI00cGZAuu29EmBlB401fajNWp2t7Td9C48WxBI3VkvaRuDaKvSwYmsbd9YLiAgpO5GFt93newRKlVn+636ZfyjbB0jWZfPdoXjdZGU7cCN+9jY62PfZy3o9brBepqMOsbr4lHvmnbEuivQstb/tScimiwmbKCLQS4iIiIi8pUUpLCJNKM32orKylZEYz635R88h35UoCzTkYslYCS3sNfjkqnb+kdWowGdOGxVavCwMdWA1V7byGD7ZhBLBuX2F2nuVfWxUncjUFleqp811LQb8zqwU0dzBtt2GjuRpWPU0yUHRG87itb+nclBI/Wa6DJR42iVegSgMuB1bHqa1AukthVt7UetO/CWzus1hiTItRONqIxP+9S7ZjNa0YLd2ThgREQT2IQMdN2wINfgPlRNmYOCKevUj2Lfo8uM/BxU7blgPk9EREREeWAQbWtb0NfXgtICaX21D02lxrRxBlgrrWb8AmYBerqkpZM7QBTB6gag04qcRAeAhtXG3OxsXwWxJICnp1MabMPOjkZsc92mrqa9GxUta9HW04a1nQ3YrHYiC3Wsabe1+opioC9FkCxShgqdNQ1gd5XVkim9llXJx6YHXca+1+n6RIwXprL/nGsf/F4v4WydpmJNjhZptvo55qcXuJMA3c7yKHo3l+s5QfWW+lai/1waB4aIKA/FA12z5yzVuWBhy4WV7vpSBbnS24/laB+66H8nxcjDuHDrrYgZZezJq3y2jx/LeZtfcY/OERERUa4pX1itc8EW3HmvzuWKCJoPWC28pPXVw2iPt/iKIaZuSe/qdhcYuJBgRB9aShPlrEY3kbIK9A1EVb6nqwMVKtKT7e2H07O7BWjd7NFaqwabW4GW2k40HLBux5+tOkr3P5nXhTq/1nSWni50VJYj3t6srx/lB6yWTEb94t30snBsJKjWNwDzlUnwfr1kHxKtqiS11xh1KB3ANj2tWqOp+sn8FlR4thwLrrcEudbigHGsA6KBrnrb60tENNHcX79e54KligvEA13vXzyhc8HClgsrnfX94z+OpGzJle39YDlv41XubP/LOkdElF2LFy9OOxGR08CbR3Uu2Jk3XtK5bLMFDqS1kW59JNNqjKxRqUG7FcRwJL9gTSOsbovSkqi/VgddaurQ2NFl5Adxrj/RMie1dLefgk9rLosETNIXpo4RNPfKvDp0ebXKsr1mBTvLEVUBNK0y0W1QtWSKB3iyfGzsvF4v1YWxVbd001Q3Tt26TZJ6/xn1k/mVibKq3mp9Iqjegzjc2WccjlLn+7mqCz9Vy/ooLfdomUZENDF859CzOhcsVVxgQnVd/PO/iHJMLiIiGjOnTp0KnYgoF9kCB/bWRkYKbBUTyihaDclYT5X9MHuU1aCu0cj3HEZnRV0agZhRbN+Df2suYWxLGiylPbh5OnWU49CHpMZH1msmr59HCytvWTg2KiBlaz0Wl8brZXu/JQJWQYLqbQUEdbLez711+JReWnHXOzqAvoqyRHCQiGgSmlCBrr//h6sMchEREWVL0GDdY8E+To170OcclrhL3fjcbY1uoMDASopWQ+r9bQVWJDiSGNBdtQCyjUdVU1eBltoWVLibc41m+34c9dJStOaKD0DvNbj5KOo42NZk+wxJ985K2MfBd5AbBnQDtT7BqsHDnehrtAJPmRwb8zXq0itX6/MJECW9XmqQetdxUV0IPQaCd80f63oPnut33lyAiGgSyvlAl3RXtPzyZ6YxyEU3mDWORHIafRcIIppofvjDHxoXfjV46aWx6naV4+yBMXs+HVaLh8SI1DnPvEtdFK2hR/imnCfv33jXRh1IiTRjW6PZ9Swbv/E17VE0dFrdzjrRYB+YXrrDGf8cca4sbF8FZW1dNr3jyeag8r6tuXqaUBofgN4clyve7XKUdYyUwTZumTQZ60VgQ7uadnNMKwkyXzSm9X7J8lLHaBrfI17HRgbdN1Zurq+lAt1+60t6vazjYu2LrK9GjVlmn2cO0O+cH7idkPzrbXZ3NMcRIyKavApiQxdjOp8Vp/b9L/xd9ysq/yurl2Px7/62ymdqy2OnsPu/9Kv85v+rAk/tCjcmyvf+5nUc/5s3VH7Zl+7Eb3zpLpWn3JX81yzg+vXrKn/t2jUjbz5KGh4ewdDwMF49+RZWrlqj15DapUuXMGvWLD3lb8839mPbY5v0lCYnxWuBA/axIuiGOHfuHM6cOcMxkcjXm2++iYULF+opJ6/npOvhggULUFZmXHVp8v4K6pIoQa7GxkbMmzcPu3fvxpe+9KWc6MIonw/7fqRlNN9rmSw7ob9H5Q8fqvLBF+ZZYr2up0+f1nPSJ+9V+T3b+Mg6Pcdf2N9Hy5Geg5g3dzamTZuKGTOmY0pJCaZMKUFxcbGRiowL8EJ1ER6Lmb/j1u+6lZff8pER4/d8ZBhDQ8O4evUTfHNfJ57Y8ZTeQmozv/YBYrvm6ykikiBl0rhmRETjpGDrWVx+7FY9ldoT27fgwTW16txCzikklRjnF0VFhSgqLDIeJRWisNCeChzTxqmHOv/Ibouur30dv/bt7+DW999X6de+9Tzw9J/oJzPzC79QrHNGfkYin5lX0DRlDgpSpKo9F3R5Ij9mS6/EX0pljIXbcfuiJjTZWoDFn5eLOz2PXV+y5MI+1Nfvw76tczBnjpm2Soxdzd+KrfVe8z3K04T3s5/9DH/xF3+BI0eO6DkJMk+ekzKj4Q5yTZ8+XT+TY+S7pirM91ByV6BE9zxJ+ntKra8NbU16GT09KN+BaxMtI6rajnl8J6b4rnOs20xqeb998CsfJN11+ZUnIsp1EuSq7Udr/C6ZRESTV/YCXV/7OvCjDzDw2CYcvv9+lQYeawbOXxx1sCt7lqN96CJi8bQfjcbcyqeP2+ZdRO/G28ziRL4iaN7WiA5rgAS5/fWDK3Hr64nbXse6jedVU3/jgs/zdtM0aqd3YHDlRVy8aKT9D+G5PfugwtSnzyLSapu/bitUTMuvPE1ov/iLv4j/9J/+E44ePeoIdkle5slzUiYM6ZIoXRMlsGWZMEEui+32+87vIb/b25vM7nnWchVosQaU6WvBQJ3Mt48ZY3bbsQb67m1ekfyd2Lgtdcun+Lplm8byO/V3o+c+BJQPku66/MoTEeWymnbje+vGtDglIsp12Ql0GRf3OPcu8PU/1jNs9u4C+geAN41ElE/it5uWa7oONFaXO257bY7n0I9zx3xuN62L0Sgs2o6m5Tp/ewSLdBaLVmOFFa9evhIP4SzO/8jI+5WnCc8d7MokyCXuvvtuFdCSwJYEuCZckEv4fQ9V+t3eXpPWTNb3VG2H8dutb09vWy6Q+zvRPci2F/u65Zb4Ouu5DzI+j1/5IOmuy6s8/zJBRERENGFkJ9D1Wj8wPXmA+P+88w0UTPkzfPMvjQuFxf9V5dNNT+x8Xa/tRriAtrvnoGBDcn+mng3G/Lv3GSf9ZvdH6d44uKfeqKPu8qiec3I8P2XrKP4ibG3zFbN+ep3OLpZh6hVmPRSeddcbuWtQI+qW6dlejAuq9G43TUTpsge7MglyCQlkSUDLCnZNuCBXpiTIpQbL1t9Rcht7/VR4ru9EfskRERER0TiIB7pmz1mqc8HClrMrgHHSbPz/RhjdftyG5scfAp49Eg9KmeVeQdezQOPjD8f7vPc9ugxr0aq7Ox7Hp07vQKktQCbBptJHgda3ze6Q3eufQ+3d+/CZUdSv79F1GHhcd7F8/iFjugW/9KvOcu56tcKsl319XuuxxlEZ3fFLlu1y8yvu0bncULNZ7qJTi36vOxdJ1x1pGbDC53bTdGO8cgTPSQuvz+ppymtWsCuTIJfFHuya8EEun+8h5+3tNVtLJvW8mQ3map0a+J2YKWsf5uhpT+a4iSnvAhdqXTZWeevHn1IqX1itc8EW3HmvzhERERGZ7q9fr3PBUsUF4oGu9y+e0LlgnuUW/zrw86t6IuE/bbsTsaHfxfp//Wv45mv/XuXTTU9sS+9uiaPaD7FqJRrxHHbqVk6q3ItH0IGHULdKzVJkXK/EWF634cq3JEC2RweMXsHuR08bZVrj/eRr/sN2VJ7Ygfp2c7vO1l7J6YMPbk0axFe22W7VQdXzNBb8x/+hZ5jc9TIDd3uw5Vhif73W09lt298Qxqvc2f6XdS5HRFajobISDdZVkHEhad322rxrtgwI6ne7aRozp3dgmR5wfs46YP+hh41PA00WEuDKNMhlkcDW17/+dZUmXJArxPdQ0u3tI83YVpFYbu1AReoWXbJMo9ktOx5gcn8nZspzH4JEMdDns91015X2tseWFXDNJI2HgTeP6lywM2+8pHNEREREpu8celbngqWKC2Sn6+KdC4AFZcCGx/QMm6YtwF0VQMVEuf3zctStN85zv3UsHojoef45YP3K4L9ORyLGRcFpDMhCg+fRbzxUfM52aR2ZC+MoxEU2HoLZ6sovHcrOYJL2etHoGBd1ve4Lnp7daIHtr/2OLoq27omybHy+kcb5wikv3PYwDtkDWPbpRdtxXAacV2mX8al2PS/c00T5ItT3kJ5v+16rabeei6G3vd2c7/7ec01by/RaP1ju78QgQev22oeg8tLyym/w+3TX5Xf8iIiIiGhCyE6gSzz6B8Dc21D+ZCvu/853cP/zzxv5/wLMLwVafl8XmhjM1leHcVgFrfZh57OL0PofrBGsQxgcVF0+Oh6wt9Jahw5jXv87HA8rn6gBl7fZLpaIaEJbvHhx6ETJQn0nWi2mXHd9HI3Bc/3hBr/P0GBbFQoKStESqj8nEREREY2n7AW6xKN/gB/+63r8ePZs/PiznzXy/2rUQa5//McRnXPmx1RkBRqWmt35BrsPo2/p6pDjcyxCuZRTraiAxueTW2pZ3QpTdV0smFKf1HUxc7pelHXSmiHe+8fdQoDGB1tqUYZOnTqVdso54/w95PhO9CL1s1pL+RXMYB8izb3e2013XT7lZf1mCy/eup+IiIgo12U30GX42dzbcPoLX8DpRYtUPpv+/C+i+Pu/Tx4LLPtuw+ovL0Lft9qx+1unHYPQ+1EBMcxHmRTU3RSDWm/dqK6LjnoREREREREREeWxrAe6su0XfqFY54C//4erWHHvizck2BWpXY3KE8+h44RzEHpL39n3dM4wuA9r1eDzTXosj+XY/PQix90MxeCerVlspeUtuF5ERERERERERPkr5wNddp/5zHS8deajGxPsijyMbXJnS59B6Cvf2pPoZnjHDsBxt0OzxVb0aaDlDqsr4hyUfisy5rcoT1UvIiIiIiIiIqJ8NaECXV/5txF8fsHN8WDXP/yDM9hVMOXPVApvOdqHEuNmOaQahP7LrY6uhl7rSOqe+Nepu0B686qnT90D65XGeoiIiIiIiIiIJpgJFeiSbozHXloVD3b95srkYFe2pDcIPRERERERERERjbd4oGv2nKU6FyxsubDSXd9nPjMN3z0y+mBX8HZfwW4Z2+rLK3B3lo8Ly3kLW25+xT06R0RERLmmfGG1zgVbcOe9OkdERERkur9exo9KLVVcoCA2dDGm81nxvb95Hcf/5g2VX/alO/EbX7pL5TP1n3e+gSd2vq7yT2y7C/9p250qL8EtCXJJsKvi8zerll6f+dW/VM/Fhn436/WgsWfeut2egOvXr6v8tWvXjLz5KGl4eARDw8N49eRbWLlqjV5DapcuXcKsWbP0lL8939iPbY9t0lM03s6dO4czZ87oKaLsWLBgAcrKyvTUxCWfj3zYD3KyXtcrV67oOZmR37ONj6zTU/7C/j5ajvQcxLy5szFt2lTMmDEdU0pKMGVKCYqLi41UhIKCQiMVGL/h5u+49btu5eW3fGTE+D0fGcbQ0DCuXv0E39zXiSd2PKW3kNrMr32A2K75eoqIiIhyScHWs7j82K16KrUntm/Bg2tq1bmFnFNIKjHOL4qKClFUWGQ8SipEYaE9FTimjVMPdf4xYQNdQoJdMlZX/1tmsEseBQNdE1PiRDhxQjyega6Geo/bbRIREd0gDHQFY6CLiIgodzHQFSAo0CXswS4LA13h9WyYg9pnzXzlON+hMXEinDghZosuEtKy4ZlnntFTRNmxadMmtuiinMUWXakx0EVERJS7GOgK4BXoSnVnxb//8e/gzNkBz3oM7qlH6aOnVd70ELqHdqFGT2XfBbTdvQydX04dRDKDTovQ+vYhNAcMgm8PTllSBam81m0ei/ljvP/hJU6EEyfEDHSRsAJde/fu1XOIRmfDhg0MdFFOY6ArNQa6iIiIctd4Brom1F0XsyGy8RBiQ/vRaOQlOBQb6yDPi+1oOaHzASTo5A5eeXsFXc9KcO6iUXednn8IfY8uQ9WeC7qMk/e6L+Dwt04D61fmRJCLiIiIiIiIiGi0cj7Q9RvLfkW15JIkeSFdE72S5dOfnqZz42hwH6qmzEHBA8/pGQFe3IrSR4HWpx/SM4IsR7s7OLeqCa1Lgb5vHcOgnhXnu+73MHACqJx/u54mIiIiIiIiIprYcj7QtezuX1HdFSVJfky9uBUFEpyy0t37kgNHYUUeRq9qcWW2HvMlAbEHnkPj84fQ/Dk9L1t81y3dKdehw8hJS7BR7ysRERERERERUQ6YdF0XfcWDQokugd2fH0RUPz02XkHTHTuAp4+jfRQ3+Bvc04KWE4vQ+qcPIzG0V9C6b0PzX9u7bxr7+9f2ZYmIiIiIiIiIJh4GuiyDg+jDIpTboj01exNdBGWcK0drr6RUj7a0mkTpVlXr92d4p0NZ3tx26dmNiA3ZB7Af7bqJiIiIiIiIiCaeeKBr9pylOhcsbLmwxmu7/00/xkUiqMRptPyeswuftV1zEPtEay93uvXWDwLvlGix1tezYRlaTjyE7r3L1bRb6v2VVlmy3VsRe+CICng1vWg+47Xu2eu6dC5Ytl+PbJebX3GPzhEREVGuKV9YrXPBFtx5r84RERERme6vX69zwVLFBeKBrvcvhrg1oCFsubDGa7v/Vj/GRR7GgacXASd2oNRqpbXhlazXz1nuOdRa25KkBq4/jZY75uC2/+t/mEVSUOtbtQvdxvuh40l7kM657g8+/Cdjnrluv7szirHdX39hy53tf1nniIiya/HixWknInIaePOozgU788ZLOkdERERk+s6hZ3UuWKq4ALsu2iRabR1XdzHEs3vi3RGz3XWxZm9yq7DY83JnxEVoffti2l0OS+dLkM4cUyzb6yYimixOnToVOhERERERUe5hoMvTbWj+0+2qK+OADl6l6rroHCPrxouePQ0sjaBUTxNRlvU0oaCgQKWmHj2PiIiIiIiIcgoDXZq02LLGuBKD3YfRh4dQN4q7IWaD1ZIs3t3wxa0ouNs5jpiUqX0WaHycd04cE4NtqNIBjoKCJjDGkUt60FTV5vg8WHqajNfL5zm1XPw1NZJH5Mq5vFG+th+t0RhisRjarbtU0KTzwx/+EDU1NXjppTzpdiXfb76fkwzY15ftdY+HfNgHIiIiokkmfwJdp99CI15TCT84o2cmMwNH69Bh5PseXWbkt6rARaR2NfofSHRFLH0UaH07cdfFtA3uQ5Val31bweNjhbJqJRrt44jF63oR7eMclMtbkWb0RltRWdmKaKw98/cEZdVgWxUKCmrV58tNglQ7jW+DSj2dpKcL6DaDVrFYFK39Ox1dj5OWHzyHflSgjJHkSU2CXI2NjZg3bx7uvvtuPZd8yXdnbzP/AENEREREN1TWA13Tpk7ROeCf/ukTnRtjX/s68PV9+ALeVwltz+JX/uKgftJZp+QuiDqYFXkYvY75o+yKmLQ+MwWOj7VqV9J2rfomlluOdtc6Q9U1ad3mejheV2bMIItuDcS/9o+LSHMvYhKA1NMWeW12lkfRu7lcz/FQ025rlRXFQF8iiJW8fA+aSlvQhw7U8vWetOxBrt27d2P69On6mdzj9f3kmFdQpQO7g2hba7y3+1pQasyv+sOvOlsvWa2Z9GObtHLUrVrTXp+sI15et4x1rNdM3t2CnS0wm/a5Wln51dOj3s566Hr71sO1P+kMxElERERE4ybrga7P/upndA44e+4irl4d0lNjRIJcP/oA+NNWNOF+la5+4//G0MAgvvj976si9joRjZpxUbS2pQLdqjVQDN0VA+omADT+5OJ7LQ6gN1SU2riIrZKL2i7U6ZZ63svXoD3eos94zdlCJa9Jl0TpmiiBLctECnL5fT+pwLCeF+uuQMtuieRE0Hwg8d7uXfdptQpPfS0YqJPlzc9Keuszg8UVuhVltLUftVZEK75eWU8jOnbaAliKfE5rbS0wY2hfpp/y4qqnc1rqMYBtej2xaAM61+rtedbDtT+hvleIiIiIaLyNQaDr05g391dV/uOf/RP2dhxC90sn8L2/eT3r6bU//V/4//73SXzvwS+r6d/4DeC++6C2eci4UPnlv/s7LC4x60SUNZEyVKjWPWYLgZp2dmfMDYM43NlnXK+Wmq0ypBWWcfFaam/54WBcxPbKhW0dulTLjnSXp3wkXRIloCWBLQlwTaggl/D7frK3ZKrtAPrPpfe+rmzFZvsXXTrrk66/tuUjqxtQ2dFltrCyr7e0PLm78eBhdMK17SDuetqnVRdk3TJTkvqM6z9UpKoHEREREU0YYzJG12+t/peYMWOaykuw6+RrAzj+N29kPX3wwiv40U8+jk9LoGvJEnObIjZjOlb8Qv4MQ0a5ogbtqkWABEjkgkl3iaFxZgWudLJaYaVsgVWDusY+DEQzXZ7yiQSyJKBlBbsmVJBL8fh+kqBUaSca9M0UvLr8piXb67uR5DNtfcZV4h8qiIiIiPJNPAo0e85SnQsWptxNvzgD7e3fjLfsGg+ReZ9F+ef+OaZNm6rnOGVzfwXLect2ufkV9+jcODIu8prUWC1yQRlFa2U/zrHJT25TrU8SAcnBtibb4PM96OqoRHmpnqRJzx7smlhBLoPX99NFY7KyAat1xHbwcCf6zKzJatUkbPmkcnZh1yeklVlfC1TvRoMq31gXLsAUWY0GJJaNC1tPO1c9QnPvDwUqX1itc8EW3HmvzhERERGZ7q9fr3PBUsUF4oGu9y+e0LlgYcsNDnwX//Zfr8TDX1mNe+/5F1j2pTuznn5l9XJ89uabHPNkW7LNf/NgNUqGh4Eld+oaOaWzvz0bEnc49LtrYraPH8t5O9v/ss7dQKr1gjUgcRN6jIslWN3bCkrR2XBgdDcuoIyowbDjr4vfINbezJdQd18qkPF/evkakoMEtr7+9a+rNGGCXMLr+2lFM7ZVmJ8Tmb92oCLRAitiPNdoduerOrwaB2T8LK9ydrJMmPXt/wc90xznrr/WLF8qY4gl7gaRgjlOlrWspKZoc7h6JnHWQ6VUXZPt+8PB6EMZePOozgU788ZLOkdERERk+s6hZ3UuWKq4QEFs6GJM5yemp/8EOH8B2Ps1PUNr2gLMLzVO+H9fz7C8gqYp69Bh5Bqfv4j2VeZck/lc/9PH43cjHNxTj9JH56PbujvjqFxA293L0PnlxPopIdGVxErA9evXVf7atWtG3nyUNDw8gqHhYbx68i2sXLVGryG1S5cuYdasWXrK355v7Me2xzbpKRpv586dwzPPPIO9e/fqOUSjs2HDBmzatAllZWV6DrB48WKcOnVKT6WWbvmxIp8P+35QfrBe1ytXrug5mZHfs42PrNNT/sL+PlqO9BzEvLmzVcv5GTOmY0pJCaZMKUFxcbGRilBQUKiCibGY+Ttu/a5befktHxkxfs9HhjE0NIyrVz/BN/d14okdT+ktpDbzax8gtmu+niIiIqJcUrD1LC4/dqueSu2J7Vvw4JpadW4h5xSSSozzi6KiQhQVFhmPkgpRWGhPBY5p49RDnX9M/AGsHv0DYO5twFc2AY88BvzBfwTWGnnPIJdTx5P7UgzGewGHv3UaWL8yC0Euw4vtaAnXcImIiMaBBK/CJiIiIiIiyj35MVK7BLskLf514F/cBWx+JGWQq3L9Q6g8sQO7X9QzPL2HgRNG2fm36+kMDe5DlXR9fOA5PYOIiHKNtM5KNxERERERUW7Jn1sSVpQDD/8O8Hv/2siHaMY+vwnb1ge16pJuhmYXx75Hl5ljdN2dqgWYj8jD6B26iNjQfjTqWURERERERERElF35E+jKQM1/2B7Qqus2NP+1GZiqfPo4YhKo+uuHwfGqiYiIiIiIiIhy06QOdElLqwNPL0LHA1uRzt3GZYB66y6M3qkevDkTEREREREREdGNNbkDXYbIxo1oxHPYueeCnpNaZOMhs4WXbzqEZjb9IiIiIiIiIiK6oSZ9oAtYjs1PL0Lfo+1pteoiIiIiIiIiIqLcEg90zZ6zVOeC5Uu513Z8WefsrbrO6zkJ/00/2o2m66LX+rzky3HOdrn5FffoHBEREeWa8oXVOhdswZ336hwRERGR6f769ToXLFVcoCA2dDGm85PEK2iasg79Tx9H78bb9DwzeFX66GmVl8Hnzee8y2Yu2+vLL7FYzJWA69evq/y1a9eMvPkoaXh4BEPDw3j15FtYuWqNXkNqly5dwqxZs/SUvz3f2I9tj23SUzTezp07h2eeeUZPEWXHpk2bUFZWpqcmLvl85MN+kJP1ul65ckXPyYz8nm18ZJ2e8hf299FypOcg5s2djWnTpmLGjOmYUlKCKVNKUFxcbKQiFBQUGqnA+A03f8et33UrL7/lIyPG7/nIMIaGhnH16if45r5OPLHjKb2F1GZ+7QPEdoW40zYRERHdcAVbz+LyY7fqqdSe2L4FD66pVecWck4hqcQ4vygqKkRRYZHxKKkQhYX2VOCYNk491PkHA11x5vwOI8dA1/hInAgnTojHM9DVUL9KTxEREd14DHQFY6CLiIgodzHQdUP5B5usVl1ZD3QN7kPVHTvQpyctie2QSJwIJ06I2aKLBFt00Vhgiy7KZWzRlRoDXURERLmLgS4iQ+JEOHFCzEAXCSvQtXfvXj2HaHQ2bNjAQBflNAa6UmOgi4iIKHeNZ6CLd10kIiIiIiIiIqK8wEAXERFRvulpMpttG6mpR88bD4NtqKpqg8+NiImIiIiIso6BLiIiorzSg6bafrRGzS5i7TV69kSXbtCMQTYiIiKiSYmBLiIionwyeA79qEBZRE/ni0gzenubEXq30i1PRERERHmBga5R6tkwBwVTzFS154KeS0RENB560FTagj50oFa6LkqLJmnZpLsxFhQ0GSUMurVTW5OeZ2/9pMrrcsactiozP9hWFe8OWVBQhTYp7F6PWsS2PVUXD/YyjnU1oanKnN/UI9u28tbzZh0ddfGbZyvv3J7XMTDTuHbzJCIiIqKsiAe6Zs9ZqnPBJno5MzC1Ff/Ms9wFtN1tPL/hFT0dvL7BPfWoffYhdA9dxK233orejbfpZ/w51je4D1U6SJacSs0Tfw/mPtSr51Melxe3OtbrDsbZA3V+Zbxk6/WwhC03v+IenSMiomQ1aI+2orKyFVG5u11vGXaXtqCi2+zGGG3tR60VzelrwUCdzG9HTaQMFX0DiBqzBw93oqIR6FLFohhAOUqNXKS5N37HvFh3BVp2e6wHZqDN2l5M6mKWspEyA9hmrSvagM61OiDV14/yA8a87kZ01K4FrPxO/bwYbMPalgp06+W7K4x6e83Txa3gX/Ax8NgOZaR8YbXOBVtw5706R0RERGS6v369zgVLFReIB7rev3hC54JN9HI1Dzxk/P8sth3zKDd4DJ3G7MYHlusZQeu7gMPfOg2sX2mc2GdYv8jD6B26iJgrRZ9eZDz5ebOMixlc0xOGwO1KkOuBs2h9W6/77e3Ao8tsgaxX0KUDdfHtP/8Q+hxlvGW0vwHCljvb/7LOERFl1+LFi9NOOU+6MVa2YrMepyuyugGVHV1miybbfAmQ1TX249wgEB2oQN3mcvRLpEuWrygzu//ZW0XVdgD958ygkH09ru15Ul0rdYszSdLqSwfZUNmA1bKx0nJU2vPynEWCcmp5s2VWTbsO1LnnqcKGsMfAvR3KyMCbR3Uu2Jk3XtI5IiIiItN3DtmCHQFSxQUmX9fFVSvRiNPo7E4O5Ax2H0YfHkLdKj0j0HsYOGGcI8+/XU9nixVA24hm98AiL25F6aNA69MSrEvlAtqefM65nsjD2LYe6PvWMf0X6+VoH9qVuBgQq5rQutRehoho8jh16lTolG9Ky4GBaA+6+stRGlmNhv4u9EQHUFFn/EpIkKu0Ew16gHvvllppqNQtzuLJFphKqQbtapk6dKlgmQS3vOYRERER0WQ0CcfoWo46R7DH4myhJa2dmlxd+qTLo3niLF0c16HDyEnrJ/Xc3fuyExh6sR0tJxah9T8kWpUp0s3xgefQ+PwhNH9OzwvkHYhTLdpOHMZhRrGyK1du5U9EZKe6JLbA6mUo3RL7Gus8g0rS0gk7d6K/YTUixj+Z7OoCyqXforBaWBnUesysk9peZ/w3xrOcq05pG2xDk+rbL8GtKFor+3HumMe8i6p0WseAiIiIiCa+STkYvWewx6PbYt3zti59Rupe/xxqVbDrNjT/9X40GmUqnz5uPv/XD2fhzk4erbCUV9B0xw7A2FZ7qNZmhsHz6DceKj7nNW7YaQz4BLoG97SYgbY/zcb+5AndXafKPmiazLMGOTbeEXl5K/8JwTj28deBaOz98Ic/RE1NDV56aaJ0uzLH7OqvNQPxpTKOld+XVKQMEpVq0NEsmezoLzeDW5FmbKtoQakO6K8dqPBp0WVsT8bvKg0q56yTSul8jqViLaV62VJ0NhxA8wqPeXN0+XSOARERERFNeJMy0OXVfTG52+Jy1LiCStb4XjKGiR8ZQ8vZCsydzEHkPXm25tKtx9bvDzXYfdzgoPdf2z3pQfiN+pWe3YjY0KHkbpOTXWUjKjrXer92aryZPLyVf44z77BWq1pWEt0IEuRqbGzEvHnzcPfdd+u5OSjSjN7e5sQfK2Ta3UXQXUaR1lC9ie//mnbEbGVq2q11xNDb3m4u77UeWc5dTj8V56iTkdzr8srH50k9E8v2qgp7zHOvI/68zzFwTxMRERHRhDQ5A10e3RejZ+3dFhMcgasHntNz/UU2HnK0AktOfkEk3Zpr6ep41xDRs2EZWk48hO69rq6MWSUt1HT9Hjii9rXpRf0UaeXYvM12l7E4825ejlv562dobKk7wI12nCCikOxBrt27d2P69On6GSIiIiIiyiWTNNAFV/dFufugs9uiNUaXGvzdumvh82EGgc+Qas1l1OFxry6D0mXSahFmBdxOo+WOOf53R4xEMgsArNqF7vVAx5NZGnMsn9S0oxu1rjG4zC4xiVv5szUA0UQmXRKla6IEtiwMchERERERTRyTNtBldV9UY1W9eAQd7rstqnmL0Pp2et34Muu6aLXm2o7N7u6Se3WQzZ5UwE3qdtG/O2NkLip0NtkilAfsU+n8RcCJQfNW7+RQs7kV/TvZaosoX0mXRAloSWBLAlwMchERERERTSyTN9Cluy92PP8Kep6XAeCTuy1mIqOui4GtuTJ1O8qXmvtnp/bV1T3STXXjXBqBdaMtsok040BDJ3Yf1tNElFckkCUBLSvYNamDXO67yfLuskREREQ0AcQDXbPnLNW5YPlUTnVffHYdapO6LRpU17/T+I9LF+sZr6ApYIyuzOvn3Zor3fVZLckSXRlvQ/Pjsn97VAsyVW5wH3Ya+1r55RVmQO3FrSi429lF8TOzSs3jkSLolvn+egtbbn7FPTo3fiLN24AWGZeLiPKRPdg1eVtyue8ma5uWOxj6tWx13JE2TaNZlnJG+cJqnQu24M57dY6IiIjIdH/9ep0LliouEA90vX/xhM4Fy6tyqvuicHVbFJGH0fv8Qxj66T/oLod7UP60/xhdGdfPpzVXVvZ31S7Enp+vxvL64IMPUHDHDuDp44nujrL/J3ag1Na18h9++nnVJbLdfTxcslI/m7Dlzva/rHPjqQbt3eY7h8aPuuui3AigrwWlbGFCWSaBra9//esqTb4gl8F9N1n7dNDdCXnnwklv4M2jOhfszBsv6RwRERGR6TuHntW5YKniApO466JYjnbVnXCXd7dFCRTZuxxulGmr66G5rO8YWWHpbaQKLDmoZZxdIK0uk0n1ceyD+3lr/+0pvTHJJgWvCzf7bfd5YTcu1F0X5QYAOrVno+8xUV7oQZPuYhjvZiitpeLzmowSmmN+lR5D0n032Sb8jn16UT0WxVteuba1z9Yqy2vdutVWW5NtGVWZQbStTQSuq5IHsyQiIiIiCmWSB7qIiIgSFi9eHDrlpkG0VdUC3fYgsBm4qtDzoq39qDUH3TLmD2CbLheLNqBzrQSp3HeTbcdf2qc7l2Ga37aWqScMfus29LVgoE7P725Eh+oGGUHzgcQ2evkXFyIiIiLKEANdREREhlOnTqWdcs7gYXSiFZvtLRyl22FlYl5kdQMqO7rQo7oj6lZaklRX4IHwd9z12pYlaN22uqC0HJU6S0RERESUDQx0ERERTVZWK614as/KHYiVsVw3EREREZEPBrqIiIjyRWQ1GtCC3fabM0TKUNGXmDd4uBN9jXWocc1Pm9e2LJmuO50WZUREREREHhjoCtCzIXE3wqo9F/RcIiKiXGWOddVfq7sMGqmpxxxzy5pX2lKBbnX3Bud8leKDzIfhsa3j+qlM1h1pxrZGs7sjB6MnIiIiokxNwkDXK2jSwSt3anpRFzEM7qlH7bMPoVvfjTCTuyvaA2Ve2xCyHXcZM9Xru1+FK+PHvax7+0RElGfkTrC2LoMqpuWYZ+tC6CrrezdZ+7Q7b1u+/WH/59S6g9ZrqGk3y3IweiIiIiLK1KRt0VX59HEVwLJS9OlF6HjAChxdwOFvnQbWrxzFeCIXcO6tRKAssQ2vYJOznJkOwXmeH6aMkwS5Sh+dn1ju+YfU9tk6jYiIiIiIiIjyUTzQNXvOUp0Lli/lXtvxZZ0zRWpXoxKn0dktQaD3MHACqJx/+yi2exua/3qXI1AW2bgRM4zHjudfMWcEGPX+Du7D2kdPo/F5sw6q3Kpd6F4P9D3aDr9hU0a9XZdsl5tfcY/OERERUa4pX1itc8EW3HmvzhERERGZ7q9fr3PBUsUFCmJDF2M6P0lI18V16H/6uLM74uA+VN2xAxXPH0f5k8vQckLPF0u3I/rXDye6WmTsAtruNtaNxPoSra6cQTG7MGWSvLgVBQ+cRevbrlZffvNzQLx7SzwB169fV/lr164ZefNR0vDwCIaGh/HqybewctUavYbULl26hFmzZukpf3u+sR/bHtukp2i8nTt3Ds8884yeIsqOTZs2oaysTE9NXPL5yIf9ICfrdb1y5Yqekxn5Pdv4yDo95S/s76PlSM9BzJs7G9OmTcWMGdMxpaQEU6aUoLi42EhFKCgoVGOzxWLm77j1u27l5bd8ZMT4PR8ZxtDQMK5e/QTf3NeJJ3Y8pbeQ2syvfYDYrvl6ioiIiHJJwdazuPzYrXoqtSe2b8GDa2rVuYWcU0gqMc4viooKUVRYZDxKKkRhoT0VOKaNUw9zbFgGukwynpY5JpcEk3yCYaOlg2l96/cjtne5OUsFsU6rvEW6Vdq3G6ZMEr+AVjygdxHtq/S8HJE4EU6cEI9noKuhPscOEBERTSoMdAVjoIuIiCh3MdB1Q5lBrA49lbDIFhTyDnR5BZyc7OtIZgbTgMagIJMKUD0H2IJhScKU8QtoMdDFFl0TEFt00Vhgiy7KZWzRlRoDXURERLmLga4bKqhFlxWEGoMWXWGCU5qzdZm31GV0N8kTzjKhgm3jJHEinDghZqCLhBXo2rt3r55DNDobNmxgoItyGgNdqTHQRURElLvGM9A1ae+66Fazdz8ajccwA8WnTVpRSZBLxvpKEeQSpfMXGf8/i3PqDpDeUpeRwfCPo3Xpc6idMgcFOnXhIeO5RSjPsfG5iIiIiIiIiIhGi4GuNEjXRStg5J3q0ZYUeHoFTTIuFx5Cd1YGtE+HBLsuIjaUSJvnnwWWrsZqBrqIiIiIiIiIKM8w0GUZPI9+46Fy/u3mtIfIxkOOoFFyco/PpccDk5Zcoe+YeAGHv3U6RTAqTBkv5nKVX15xgwNuREREozDYhqqqNgQ0dHZKtzwRERER5Q0GupQLaPs9s9XVtmyNyWUPcvm25JIyW9Gjp8Tgnha0nAAaH7eWCVNG5pmtzar2XNBz3PSYXZ/fn71xx4iIiG6ESDN6e5vD/5Em3fJERERElDcmbaCr79Flti6Hy9CCdFpdhaBbiOHEDpTGt5NITS/Kk7ej3DWGVumjQOvb9oHiw5TxIQPgx5dbhoHHL6YcCJ+IiCYw3ZKprakABQVN5h9JZJ7cfUalKrOLvZqnn1d60JSqvGu9g21VuoyRrNZTXsu6+a6/CU1V5vymnkG0xfPW8+Y2vLabNM9W3rk92z4az5v7Yya1HSIiIiKa8OKBrtlzlupcsIlfbjnahy7i1ltvdXY7dLS6MstIy6eMtxt5GL329etkbdcMUiWPoWV1f0ysz7+MsMpZ3SodrbVW7YovI9sNc5fFjPfXR7bLza+4R+eIiMhTXwsG6uTOdu2okQBW6QC2WXe9izagc20bBiPN2NbYgS4ruNPThY7GOv/yUsa+3sE2rG2pQLcu110xgGjQsnFB6+9H+QFjXncjOmrXAlZ+p20dXtv1rItFtteCim7zuWhrP2qtiFZ8fzy2QxkrX1itc8EW3HmvzhERERGZ7q9fr3PBUsUF4oGu9y+e0LlgLOeN5bxlu9zZ/pd1jogouxYvXpx2ykmVrdhsNU8ePId+dKDWatFU2oK+PjMQVFPXiA4d6erp6kerLBRQ3rHeSBkqVDmzhVRNuwS/Apa1BK6/wRx3srQclfa8PGfx2q7XPFXYINuz1TuyugGVHV2qnGN/3NuhjA28eVTngp154yWdIyIiIjJ959CzOhcsVVyAY3QRERFpp06dCp0mjMpWRHVrJzPpQFDNZrT2S9CnB139OrAk/Mo71KBdPVeHLhW00l0Cwywbav1+vLbrUxciIiIimpQY6CIiIspX0tqprwW7PSM/Eaxu6EdXUxf6G1ab3fcDy9sMtqFJDa4lQaYoWiv7cQ4hlg27fj9e2z3mMe+iKp20vcHDnehTXTSJiIiIKF8x0EWUinFhJQMZV9lHVZZ51kDHNI560MTXgShADdqjreiv1V0FJdk+M9KVr78D2GYN/JiifFykDGgp1WVK0dlwAM2RMMuGXL8fr+2u8Jg3R5d3ba9UxvJqZ5iLiIiIKJ8x0EUURmUjKjrXet9BjMaFeZe1WhjX6ERkiTSjt7fZdnMVg8yzdxW0P6+ec3Ud9CqftN4a3V3QTL1WoCxoW5ZU6/fKx+d5bddjnnsd8ef1vtqfF+5pIiIiIpqwGOgiCqUcm7dVoMXd30a37HLcyp9uiEhzL2LRVg4gTURERERERHEMdBGFVdOObtTCujN9XJ/9Vv5ERERERERENF4Y6CJKQ83mVvTvdI0nY79FPRERERERERGNGwa6iNIRacaBhk7sPqyniYjyVU+THuC9wGzJ6p4mIiIiIspB8UDX7DlLdS4Yy3ljOW/ZLje/4h6dGz+R5m1ASwv69DQRUf7pQVNtP1qj5iDu7TW2abmLobtlq2U0d6Tl3WzzQvnCap0LtuDOe3WOiIiIyHR//XqdC5YqLhAPdL1/8YTOBWM5byznLdvlzva/rHPjqQbt3Y06T+NF3XWxtAV9fS0oZQsTouwaPId+VKDMug2hfTroDoW8e+GkN/DmUZ0LduaNl3SOiIiIyPSdQ8/qXLBUcQF2XSRKxevCrabd55b7dKOouy7GzNYmZosT/QTRpNeDJt3FMN7NUFpLxefZ7hDrmF+FNtWcylhegsjoQK3Mr2rC79inF9VjUbzllWtb+2ytsrzWrVttmXeq1cuoygyibW0icF1lVoSIiIiIKG0MdBEREWmLFy8OnXLTINqqaoFuexDYDFxV6HnR1n7UmoNuGfMHsE2Xi0Ub0LlWglQ1aI+2orKyFVGZ39uOv7RPdy7DNL9tLVNPGPzWbYjfqdZI3Y3oUN0gI2g+kNhGbzP/fEBEREREmWGgi4iIyHDq1Km0U84ZPIxOuO4EK90ObXeHjaxuQGVHF3pUd0TdSkuS6go8gKhZLDWvbVmC1m2/U21pOSp1loiIiIgoGxjoIiIimqysVlrx1I6s9QIey3UTEREREflgoIuIiChfRFajAS3Ybb85Q6QMFX2JeYOHO9HXWIca1/y0eW3Lkum602lRRkRERETkgYEuIiKivGGOddVfq7sMGqmpxxxzy5pX2lKBbnX3Bud8leKDzIfhsa3j+qlM1h1pxrZGs7sjB6MnIiIiokwx0EVERJRP5G6wti6DKqblmGfrQugqq+4ma82331HWPu3O25Zvf9j/Oc871bqma9rNshyMnoiIiIgyxUAXERERERERERHlhXiga/acpToXjOW8sZy3bJebX3GPzhEREVGuKV9YrXPBFtx5r84RERERme6vX69zwVLFBQpiQxdjOk80ruLdW+IJuH79uspfu3bNyJuPkoaHRzA0PIxXT76FlavW6DWkdunSJcyaNUtP+dvzjf3Y9tgmPUXj7dy5c3jmmWf0FFF2bNq0CWVlZXpq4pLPRz7sBzlZr+uVK1f0nMzI79nGR9bpKX9hfx8tR3oOYt7c2Zg2bSpmzJiOKSUlmDKlBMXFxUYqQkFBoRqbLRYzf8et33UrL7/lIyPG7/nIMIaGhnH16if45r5OPLHjKb2F1GZ+7QPEds3XU0RERJRLCraexeXHbtVTqT2xfQseXFOrzi3knEJSiXF+UVRUiKLCIuNRUiEKC+2pwDFtnHqYY8My0EW5InEinDghHs9AV0P9Kj1FRER04zHQFYyBLiIiotzFQBeRIXEinDghZosuEmzRRWOBLbool7FFV2oMdBEREeUuBrqIDIkT4cQJMQNdJKxA1969e/UcotHZsGEDA12U0xjoSo2BLiIiotw1noEu3nWRiIiIiIiIiIjyAgNdRERE+WKwDVVVbRjUk6Fluhwl62kym8wbqalHzyMiIiKiG4aBLiIionyXD4GsCbEPPWiq7Udr1Oye116jZxMRERHRDcNAFxERUb6LNKO3txkRPUljZPAc+lGBMh5oIiIionHDQBcREVGeOdxkdp2Ld5+zt4aSvH5OJVsrqaTlkvSgybZs0z5XKytrO/qxTa2vCT3uaatsfF1VaJOVOMqZyazHINrWtqCvrwWlxrwqVdjOVS9rn+PzbNv0rZdtWatsfHmv+ul1xhl1KDXqiA7UyjJGOXUc4uvwqYNaloiIiIiyJR7omj1nqc4FYzlvLOct2+XmV9yjc0RE5KmvBQN1+i533Y3o2GkLROlgTEW3fj7aikr9TPByYhBtVbWAtax0zVumn/ISX187VA8+x7TUYwDb9Hpi0QZ0rtXb86xHBM0HjLpWtiJqzO9ttjeZ8qhXjXM/o639qLUiWL71MlJ8e2Hqp5ePq0G7HE9dx1hvGXaHrUMeKV9YrXPBFtx5r84RERERme6vX69zwVLFBeKBrvcvntC5YCznjeW8Zbvc2f6XdY6IKLsWL16cdspJla3YbEVPSssTgSwhXevsz9sFLScGD6MTPst6cW/HPq26+OmWT5KkJVTfAKLyXKp6uHnVy7WfkdUNqOzoMltPBdXL2l7Y+gVJpw55ZODNozoX7MwbL+kcERERkek7h57VuWCp4gLsukhERKSdOnUqdJqQogPo09lxV6lbPsVTjrVuyvX6EREREZEnBrqI0qXHV3F26dF4W3kiymU1dWjs68Rhzy+wFCKr0YAW7HZ/t1ktnQyDhzvDBdIiZajo81hXKrZtxXnVy7V+Va/GuvCBqkzrZzfaOhARERFRRhjoIkrFazBhTz28rfwNYxzrMK+J47WzDWDtmK8HmXbpkYGidUBzsK0qvo54YiSTJqQatHdXoKVUv4+lS55+JjVznKz+2sTnoCnajAMy9pSeXjtQkbqroWKOZ2Vfl31QfE+RZmxrNLsTOgej96hXj3P9pS0V6E7rSzmD+iUZbR2IiIiIKBMFsaGLMZ0nGleJ7iFWAq5fv67y165dM/Lmo6Th4REMDQ/j1ZNvYeWqNXoNqV26dAmzZs3SU/72fGM/tj22SU8ZJDCyFjggt+e35/XTisxXgxeze0u2nTt3Ds888wz27t2rpiUI1VVnBhMlCFU6sA0xrwvIniY0oV0HHSU4thPl0QPAWvUCQo1nLa3wdpYjans9Zf070Qj0lye/zgb1fHnUNSA2TSQbNmzApk2bUFZWpueYY3Sl0yUx3fJjRT4f9v1Ii7z/u+q8Pz80rqzX9cqVK3pOZuT3bOMj6/SUv7C/j5YjPQcxb+5sTJs2FTNmTMeUkhJMmVKC4uJiIxWhoKBQBfhiMfN33Ppdt/LyWz4yYvyejwxjaGgYV69+gm/u68QTO57SW0ht5tc+QGzXfD1FREREuaRg61lcfuxWPZXaE9u34ME1tercQs4pJJUY5xdFRYUoKiwyHiUVorDQngoc08aphzr/YIsuotFQXRWlRZB5hy/HbeV1Ecq2HnR1NKJOX5erAZ77z3kf7xoryCVKUe7V1MQ12LUEzlQQa3O5nuMy2Iadxva3MchFE5RqrSjfU5LkZoUMchERERFRHmGgiyhT0oJL3dFeWgaZXVQSt5VPbgVEY0SNg+Mxbo+bujNbA1ZHImju3YaBeNctY+4B8/WSINdaHAhsqdWzuwVo3cxWezRh1bRbrWsksQUqEREREeUXBrqIMtHXglJ2U5xApMVdIqDV06QilMZFfhStlX1oUaNFD+JwZ5/x0pbqAFgL+uR1trfOY2suIiIiIiKinMZAF1EmKlvRLQMwc0Dy8Td4Dv2V5SjVk8mssbn0mFwSrOpvxWYVoZTWXVG09u9E26DkbS1drBZ69rG72JqLJopcuQOstHx1d+X2mkdERERElCXxQNfsOUt1LhjLeWM5b9kuN7/iHp0bf6XNvehGrevuXzT2alDX2IEuffGubtlfUWYGo+QC2n4XRjVtC3IJ1y3/VZfGvgqUpWqkJQEytuaiCaEn/+4Ay+DYhFG+sFrngi24816dIyIiIjLdX79e54KligvEA13vXzyhc8FYzhvLect2ubP9L+vcDSQXWFY3NnsQxVDT3o2KllIGu24wOe4Icct+FQQz/rVY43EZqaqt1HHLfzVGVzRVF9RBtK1lay6aIKSVI0IEb4nGwMCbR3Uu2Jk3XtI5IiIiItN3Dj2rc8FSxQXYdZEolUgzeu0DN8t0vDtbDdqN+Wrwcsd8GlvmcU8aTFu9VonpSHOvLpNI8dcqPs/W2svO8Xqa3RqDBqknyg0ed4BVLRutYK8O1usWUm3qDozGPHuLKVXeCuoPoq3KzMvNGqyAsXm3WV3Wvh61iG17qi5eBrC7yrUuYV82Pt8MNJt/bJBg9aB3XYiIiIiIDAx0ERERaYsXLw6dcpP7DrBl2F3aggp184UYovaxBftaMFAn8yWAn7h7qbSErGiE7h4cxQDMMfAcgePuCn0TB4N9PTrQZm1PjXVnlnLq60f5AbOMUQQtayXIJsvKTT6sZRvQqeZH0HwgsU8ScPatCxERERFNegx0ERERGU6dOpV2ynnqZg3WzReAyOoGVHZ0mS2vbPMlQFbX2I9zg0B0oAJ1m8vRL5EuWd4xBp5uRVXbAfSfM1uA2dfj2p6vygas1g0kVZ0kyKa6XOqWaJJUl3Ez+JbEry5ERERENOkx0EVEREQoLQcGoj3o6i9HaWQ1Gvq70BMdQEVdjRlYUuPZWa2tfFpqjZZutRVvrWXvmmy5UXUhIiIiogmJgS4iIqJ85brLqLpBQ2NdcvDIIC2rsHMn+htWI2L8k8muLqBc+i0KWyss80YPHtT2OnFYN6/yLWcTr5P7jqhu9tZdYepCRERERJMSA11ERER5yxyzy7rLaNBdSiVIJRGjBh1BksmO/nIzoBRpxrYKczB4Wc/agQqfVlTG9mTMLH2nU99yemB5VafOBkRVnZx1VckaIF+232h2a6w6vDpkXYiIiIhoMmKgi4iIKJ847hhqcNxlVHcFdJdR5G6mtruQ1rQjZitT026tI4be9nZzea/1yHLucvopxVEfI9mfD3jO2r4MRu9ZF12OiIiIiCY3BrqIiIiIiIiIiCgvxANds+cs1blgLOeN5bxlu9z8int0joiIiHJN+cJqnQu24M57dY6IiIjIdH/9ep0LliouUBAbuhjTeaJxFe+qEk/A9evXVf7atWtG3nyUNDw8gqHhYbx68i2sXLVGryG1S5cuYdasWXrK355v7Me2xzbpKRpv586dwzPPPKOniLJj06ZNKCsr01MTl3w+8mE/yMl6Xa9cuaLnZEZ+zzY+sk5P+Qv7+2g50nMQ8+bOxrRpUzFjxnRMKSnBlCklKC4uNlIRCgoK1RhqsZj5O279rlt5+S0fGTF+z0eGMTQ0jKtXP8E393XiiR1P6S2kNvNrH+gcERER5aLLj92qc6k9sX0LHlxTq84t5JxCUolxflFUVIiiwiLjUVIhCgvtqcAxbZx6mOO8MtBFuSJxIpw4IR7PQFdD/So9RUREdOMx0EVERESTBQNdlJcSJ8KJE2K26CLBFl00Ftiii3IZW3QRERHRZMJAF+WlxIlw4oSYgS4SVqBr7969eg7R6GzYsIGBLsppDHQRERHRZJLNQBfvukhERERERERERHmBgS4iIqJ8MdiGqqo2DOrJ0DJdjpL1NJlN5o3U1KPnEREREdENw0AXERFRvsuHQNaE2IceNNX2ozVqds9rr9GziYiIiOiGYaCLiIgo30Wa0dvbjIiepDEyeA79qEAZDzQRERHRuGGgi4iIKM8cbjK7zsW7z9lbQ0leP6eSrZVU0nJJetBkW7Zpn6uVlbUd/dim1teEHve0VTa+riq0yUoc5cxk1mMQbWtb0NfXglJjXpUqbOeql7XP8Xm2bfrWy7asVTa+vFf99DrjjDqUGnVEB2plGaOcOg7xdfjUQS1LRERERNkSD3TNnrNU54KxnDeW85btcvMr7tE5IiLy1NeCgTp9l7vuRnTstAWidDCmols/H21FpX4meDkxiLaqWsBaVrrmLdNPeYmvrx2qB59jWuoxgG16PbFoAzrX6u151iOC5gNGXStbETXm9zbbm0x51KvGuZ/R1n7UWhEs33oZKb69MPXTy8fVoF2Op65jrLcMu8PWIY+UL6zWuWAL7rxX5zK3YsWKtBMRERHlrvvr1+tcsFRxgXig6/2LJ3QuGMt5Yzlv2S53tv9lnSMiyq7FixennXJSZSs2W9GT0vJEIEtI1zr783ZBy4nBw+iEz7Je3NuxT6sufrrlkyRpCdU3gKg8l6oebl71cu1nZHUDKju6zNZTQfWythe2fkHSqUMeGXjzqM4FO/PGSzo3OqdOnQqdiIiIKLd959CzOhcsVVyAXReJiIg0r4tjvzQhRQfQp7PjrlK3fIqnHGvdlOv1IxqN83tRXb0X5/UkERFRPmGgiyhdenwVZ5ceIqIJoKYOjX2dOJzJF1hkNRrQgt3uQaWslk6GwcOd4QJpkTJU9HmsKxXbtuK86uVav6pXY134QFWm9bMbbR3oxjrajJkzZyZSc7iWaVk3WQJQYffTXo7BOSIiComBLqJUvAYTpnHWYxt4mq8JUXg1aO+uQEup/vxIlzz9TGrmOFn9tdZnrwBN0WYckLGn9PTagYrUXQ0Vczwr+7rsg+J7ijRjW6PZndA5GL1HvXqc6y9tqUB3ezohpgzql2S0daAb5fzeasxcAxy8fBmXdTqIFzBOoS7yM3cDjh7dgLl6koiIyA8DXUSpyG354wMMs+tKLuhpSgw87RjgmWiyk++r3mbEh2q3pu3za9oT3fG6G4GKMufzwj1tkfnxrnwy6LvM6o1P97a3J29PeK3Pta5YiOVq2vV2HIPRG1zrUvEkxzz93Z1i/Y5p1zo96+fmtb5UdaBxdh4vHgKePN0G+zD61W16WloRxVt6NZvBL92yaG9zogWYagCmyuoyylE025eJr6cae6VZkmM9Uu489jY9jpMnH8cio1y1KqQFbdPeysmaVo/NaK62yhrrjud1WbyDPXpevE5CltXb8K+rjeM5M8W34ViXtVzyfqpgY7ycVRdXuZ07E/vqtd6gehAR0aTCQBfRaPQ0Qd12/hhvF3/j9KCroxF1OuKoBnjuP8eupEQh9ajvKZ0kZsxWRjSZnX8Rh04uQKlnM6GjaF70OBYcNFt5nX7yDNZYkZOTj+Od+3QLsIPrsP+pvTg/dwO2rNuPF6zgytEXsH/dfahW63kHW6wWY6frcahJB2zi65HA2lxsaH8SS5Y8idNGuaMbXJXy2qZ+ytPJM/hcuy67pgmw8tZy1vPG+k4/CTyu6hS2ri6edfM7fsn7OXfDUXNZtfwCPL7Ho9y/+WdqU2m/LuYzREQ0iTDQRZQp6dKoGhb1onmOMZ3Ht4vPaWocHI9xe4jIk9UqytHKiGgyW/I5zNNZh/NRnFnyJDbqqM7cVfVYsl93abTNx7zPYYnOVt+3Dvt1pOvoC2fwpBSS9WA/1lgtkBZJK6V38K4Usq8nFZ9t+lpSj1USK5Oy9rx60mDNM6h9kzplWlevugUdPzd7C601+4EzUf8AVQavCxERTS4MdBFloq8FpaUD2Ga/SMzj28UTERHlpbmlWHDyEF7MVrOf6o148owEXY7ihTOJQJIEYKRVUrzVklerqFxxo+sqQa5Fh1B/Wm/v9JMMUBER0agw0EWUicpWdHNsqNwweA79leUo1ZNElMN411rKOdXYKN32FjnHnTrabEyrINjjUL3oDOdfPISTqitikLlYVX8GLzS/gDP1q8yB013rSclqQRWWrbyqo86nI75v6dY1SKrjZ99PW+uypH1wH4+MXhciIppM4oGu2XOW6lwwlvPGct6yXW5+xT06N/5Km3vRjVrX3b9o7NWgrrEDXTrGqG7ZL4Npm5NElG8YHJtQyheGCzcsuPNenRt/Mj6UGufJ6jpnpDWQwEk12k4/iTNrzHmLHl+Ag22p90+60p3ZD2yJj7HlXI9K1qDqbnqcL6mLYzB6P0b5dlvdm95ZEL411ElzkHe1b4fqcVrtWxp1TSng+Nn388VV2LIgURfHPtjL/fef6JmZvS5ERJT77q9fr3PBUsUFCmJDF2M6TzSuEmPGWAm4fv26yl+7ds3Im4+ShodHMDQ8jFdPvoWVq9boNaR26dIlzJo1S0/52/ON/dj22CZzQi6y4rfgb0R3tBw71wIH1F2zetBUUIv+rz4OfPfTeh5l27lz5/DMM89g7969eo553DtU3nhNOM4QpWnDhg3YtGkTysrK9Bxg8eLFOHXqlJ5KLd3yY0U+H/b9yGnyfRr//gwpk2XygPW6XrlyRc/JjPyebXxknZ7yF/b30XKk5yDmzZ2NadOmYsaM6ZhSUoIpU0pQXFxspCIUFBSqGx7EYubvuPW7buXlt3xkxPg9HxnG0NAwrl79BN/c14kndjylt5DaihUr0v7MHjt2TE8RERFRLnli+xY8uKZWnVvIOYWkEuP8oqioEEWFRcajpEIUFtpTgWPaOPVQ5x/sukiUivv28I5bw9eg3Zjf+0d/zNvF31DmcY+/Jnou0aSnWz857gAr86y7LMpdYqVplJpnv0OsBI9TlHetd7CtSpcxktXiymvZJAPYXeVRxnPZQbStbUGfjItozJcWtI7t+m6DJgsJXoVNRERENDkw0EVERKR5XRz7pZzluANsD5rUjTN0YDjagM61bRiMNGObrQswerrQ0VjnX17K2Nc72Ia1LRXo1uW6K+TOpwHL2vX1o/yAWSbaCrSoMn7LRtB8oBWVla2IGvN7myOINPeaZSR1V6BldyJcR5OLtM5KNxEREVH+Y6CLiIjIIF2g0k05yX4HWLlZAzpQa7WAkm7YfRKUAmrqGtGhI109Xf1olYUCyjvWGylDhSpntu6qaZfgV8CydpUNWK2bv0ZWN6BSyoRdVthbftV2AP3nkoNpRERERDRpMdBFRESUz3RrqHgrKKu7b81mtPZ3ocf419WfCD75lnewug/XoUsFnXS3x1DL+gizrAS5SjvRENVloq2o1E8REREREQkGuoiIiPKVtLzqa4F3774IVjf0o6upC/0Nq80xBgPL2wy2oUkNjiUBryhaK/txDiGXtVF3TZUuk6m2a2/dZWsRppY3s0RERERECgNdREREeasG7dFW9Nfqrn6SrIHjDdJ1sL8D2NZsNecKLh8XKQNaSnWZUnQ2HEBzJOSyfS1qYHl5vrSzAdF2abcVsKweT0y6NVYdXo1tFYnl1w5UsEUXERERETkw0EVERJQvHHeF1Rx3jjWS/Xn1nKuLoFf5pPVKS65EGRkkXgnalkhZF+/natrNebIdK6+m29t5x1siIiIicmCgi4iIiIiIiIiI8kI80DV7zlKdC8Zy3ljOW7bLza+4R+eIiIgo15QvrNa5YAvuvFfniIiIiEz316/XuWCp4gIFsaGLMZ0nGlfx7irxBFy/fl3lr127ZuTNR0nDwyMYGh7GqyffwspVa/QaUrt06RJmzZqlp/zt+cZ+bHtsk56i8Xbu3Dk888wzeoooOzZt2oSysjI9NXHJ5yMf9oOcrNf1ypUrek5m5Pds4yPr9JS/sL+PliM9BzFv7mxMmzYVM2ZMx5SSEkyZUoLi4mIjFaGgoFCNoxaLmb/j1u+6lZff8pER4/d8ZBhDQ8O4evUTfHNfJ57Y8ZTeAhEREU0mT2zfggfX1KpzCzmnkFRinF8UFRWiqLDIeJRUiMJCeypwTBunHuZYrwx0Ua5InAgnTojHM9DVUL9KTxEREd14DHSlNvNrH+gc+bn82K065+3YsWM6R35WrFihc0RENFYY6KK8lDgRTpwQs0UXCbboorHAFl2Uy9iiKxwGulILE+havHixniK3U6dOMdBFRHQDMNBFeSlxIpw4IWagi4QV6Nq7d6+eQzQ6GzZsYKCLchoDXeFYga6Lj8xQj5Qw5xv/pB4Z6BodBrqIiG6MbAa6eNdFIiIiIiIiIiLKCwx0ERERERERERFRXmCgi4iIiIiIiIiI8gIDXUREREQTRHNzs845+c0nmhQu7EN9/T5c0JNERDS5MdBFRERENIG4g1oMct14F/bVY86cOfFUv0+HWNwBl1e2que3vqKnJwu93/E06Q4AERGNp3iga/acpToXjOW8sZy3bJebX3GPzhEREU1eVnAr14Jc5QurdS7Ygjvv1bmJR4Jcyw6vxvGLF3FRpf2Yv2NZIthlkaDXurPYfvwidi3X8yYBFQRcB+yPH5+L2I8jYKiLiIhSub9+vc4FSxUXiAe63r94QueCsZw3lvOW7XJn+1/WOSKi7JLb66ebiG60trY2nXMGuezzx9PAm0d1LtiZN17SuYnmFbTvALa3Pozb9BxgOXYd3w4cPpZoySVBrmWHsfr4ITycKDgJXMCxw8bxOb7LOCoJy3eZ086WcPVQsUHdCm7f1kQLsEQDsFewNV5ez5fy8Xl6HURElBe+c+hZnQuWKi7ArotERETaqVOnQiei8eIOauVKkGtSuHAeZxetxgp38Oq2uZh/ehDvqYnDaJmUQS7DhWM4fHo+5vrs920PH4q38rq4fz52tOuI1ukdGFxpzX8Iz+2R7p8XsK9eNQ2LL7Nr+SvYumwQG611HF+Nwy0cm4uIiJwY6CIaKz1NKCgoUKmpR88jIroRcuX7Z7ANVVVtGNSTWTEW67SM5bqzzApuMciVg04Dq7fPx47JGoBZFMHtOpvE3hpr3XPA2fPmMVq0HU1WE7DbI1gkjxI0g22+kEAjnsM6ax3LduB0PMBIRERkYqCLKJWkC59BtFVVoS3wSqgHTbX9aI3GEIvF0F6jZ1NWDLZVxS/i48l1Nd/TZMzzvWA1Xp/4sk3GlMU+30iMUJLLD3/4Q9TU1OCll3K52xW/f7JiAgS9GOQaB6rl1mEcc0ewVEsvHeCRFl8P78Lx1YexbLINwu53fES8O6fVGmu7GdBK16LttvHRJDm7SRIRETHQRZRKZDUa0InD1tXO4GFjqgGrI3ray+A59KMCZUFlKGOR5l51AW+l7kagsrxUP2sGuXaiEZV62q2nqRboNpeNtvaj1gpo9XTF58diUbT270wR0KTJRIJcjY2NmDdvHu6++249Nwfx+4doDC1H03a4WmtJd7odwOoVtnG7pJteK7afXZc8SH1e08dn2VbH4POvbNXTtm6fF44dlsZv/m5bgdXYAat3o6ICaa55RERELgx0EaUUweoGoNOKdEUHgIbVxlx3yyKrlVcPmkpb0IcO1Mr8CdINZsIabMPOjkZsazav6uU12VkeRe/mcjWdrAddRvk63colYry4lf3nzNeopt3W+iWKgT4GC8hkD3Lt3r0b06dP18/kGo/vH2mZFP+e0i0YdWulNmn5KPPsrZdUeaulo7RgNfOe33fu9ahFbNtTdfFgLxP/7kxjG4rUzd41U1pkulrbOvZFSBmPejrKCGPda42697Wg1Hi+ylip9/e9FLWvx0iO4+hRniY8GWdKtdayus+ZtxjEoaQBuW7Dw4d87siYx9Tx2X420b3QSOuwEstvexgb5++IH7eWwfkpWnQZx691O86uS6xn6yvmwP/2eXPqOUYXERE5MdBFFEKkrAJ9A1GV7+nqQIWOfjhaFnVXoGW3XCrVoD3aisrKVkRlfm+zCorR2OjZ3QK0bjaOulxXVmEtDqBXB71CiZShom8A5qsrzIvngoIu1MXa1Xpp8pAuidI1UQJblokT5BLu758y7C5tQYVXC8a+FgzUyXzjfW77HAwe7kRFI9ClikUxgHJIe0nv7zuDfT0SSLJtLyZ1MUvZSJkBbLPWFW1A51ozOBRuG5YImrc1osOsqHw5o6NxGxwf/0gztjV26H0xqDJ1SfV0HBfFWPeBxHGU7xTvuvntr/8+Un5wDKpupF1W37nbHsahQ647MhrPJwfB8pv7+FzUB2j5rsS8Q7t2mcfKfczs05K3rUetxjXvotc6iIhoUmOgiyiMmjo0dnQZly6DONefaA3k+It9bQdgtQyiG8M4/onWXIM43NlnXA+Xmq+HtCSR1hhW64rQjAvcXrk4rUMXW2FMOtIlUQJaEtiSANfECnJ5kG6Mla3YrL+zVAtG9V1msM2XAFldYz/OGe/36EAF6jaXo1+iQ7J8RZkZrPf7vrOvx7U9T6prpW5xFv+s6mBzmG3Yxb+bJYbVgcb4l3NCTV0iGNbT1Y9WWVHQcfHjVTe//Q3aRyIiIiIaUwWxoYsxnScaV/G/lMcTcP36dZW/du2akTcfJQ0Pj2BoeBivnnwLK1et0WtI7dKlS5g1a5ae8rfnG/t1joiIaGLb+Mg6nfMX9vfRcqTnIObNnY1p06ZixozpmFJSgilTSlBcXGykIhQUFKogXyxm/o5bv+tWXn7LR0aM3/ORYQwNDePq1U/wzX2deGLHU3oL4cz82gfq8eIjM9QjJcz5xj+px8uP3aoe/Rw7dgyLFy/WU+R26tQprFix4v/f3v2+1nHldxz/Wj+T/RO0aWU7SqJN4wZc0/WmbYRiV7RFLesHu9tqnwi8Jc8CplDQE7HoiR8tLnkWui6GtqKwUD8RXeqiCJVC09aIFrqL6YZUgnb/hW30s/M9Z75zzsw99+rKuld37uj9cr/MmbnHt2TWcL58dGaUnwEA+uX7q38q3/nW77neQnsKrfGsvxgdHZHRkdHsqDUiIyNxXSmdZ62H/yGjBV1T07fl53ufuf8HnTAvjXlpZ5n3v7v/HDXDviGuBl1vvD0vP/n3v+970AUAwGXSq6Drxs3flZ/99NNTg67ZG3flP57/HUFXHxF09QZBFwBcDA26/mr9b+UffvyXpwZdb7+7IP/1k09PD7qAQQuNcGiIB7WjCwCAy2TYd3ShPYKu8yHoAoCL0ZcdXcCghUY4NMQEXQAA9B9BV3N1E3ShM4IuAOg/gi40UmiEQ0NM0AUAQP8NOuj6xS/+T374Fz86c9AFAACaoRp0jY+PuaBL+4qzBl381kUAAAAMjAZfAAAA4YdjoTd4mT6BoAsAAAAXhmALAAC8jGoI1g5BFwAAAC6MPlIAAABwVu79W130EQRdAAAAGBiCLwAAoCzIinuDl+kTeBk9asO2IYbqz8voAQBAq2H8rYsAAKAZ+K2LaKTQCIeGuNdBFwAAOL+zBF2qurZradC1f7BP0AUAAFzQ9Yff1qDrlSLosr7CB10h0NLQKw65tOeIg67i0cWp6dv5qDPmpTEvrdfzZm/czUcAAKBuvvarv52P2tMG9O13F/IzT68BAIDLbfGb3yvCKquYXXvrnTv5lTR2dKE2wk97yz/11TE7ugAAqI9ud3Rlq3vL2q5Hv6PLr+W6o+vLL/flkz//G3Z0AQBwSemOru/+0e/L5ORE1lNoaV+RP7JY2dHlq/rYooZgPgzjZfQAAADoK/sJrJVxzWjenAIAgMst9ArRWP/ohdLnoVIIugAAAHAucaPpG8/8JJNqQvWa+wlsvvNLfyoLAAAuN+0N/EvndXd4HGil+wkVX7f5BF0AAADouWpD6pvP0IRa2aMHAADgcrPHE4v+IP+BWGul+ox8kOEdXaiN8js8/Hs8eEcXAAD1U31H1+TEhIyPj7lfA+7f0aVNqIZXfk1X8fpua7u+p8v/9sUD+bOPn7h5AADgcvrj+98u9RNjo2OJd3Np+OV3f/mx/4GZXiuCMIIu1EVogEMjTNAFAED9nCXoMra+63ruj/6F9Bp0HR4durX9IFvbj46O8/X+2M2xXiAc416BNhYAgGFQhFBZ6W4tf/RhlT6qqP2D9hL+F9v4X26Tegm9/f343BdBF2ooblp9EXQBw25zczMfoZ07dzr/emTu4em4h+d32j2setmgS/nwyq/1tq5rqKVhl4Zefs3XsKsccsUBmdKxfScAAKg3C6FUHFhpyKXnGmj5wMvv4jot5PJjgi7UnDWsoQi6gGGnAcOtW7fyM1Q9f/68q5CGe9ge9/D8urmHVd0EXdp8Gl3LTTW00rKw6+i4HHJp+Xl+rv0dpeP4ewEAQH1ZCKXioErDrDDOw60rfhzv3Ap/x1+z7/Nj//3KXSfoQl1YwxqKoAsYdgQMnRHSnB/38Pz6EXRZA1pla7xf36vrvA/A9KiBl59XDrjs72f/544AAKCe4nW6FELloZRWKsDSnVz+evVzH2iVz/336HUbq+JHbVPTt/NRZ8xLY15ar+fN3ribjwAAQN3oOm1NZoo1oW+8/UF2DM2q/wmu/ymue2xhdMzVr7/3TReg6WMMGqKF0nP//g6t9z/4TjHuVMxLF/PSxbx0MS9dzEsX89J1GebZWq2l88J5WM/tXVyusnX/177+B643OC3kuv7WXN5ZtHK9Bju6UBfhp7Thp7Xln/SyowsYNuyk6YzdSOfHPTy/Xu/o0qNrMl3p7HLwZet82KEV1vv4qOt+MfckvZvLjgAAoN60L7CjDq1X0McUi3H0WGI15Iqvlav63VkRdKEuQgMbGlmCLmC4ETB0RkhzftzD8+tV0DUx4X8ya0GXNqPZ6p6VbzqNrfMh6Cqv+dXP4sDL/cmO9j0AAKCe4nU6DqLs6P7oMSsNuMI4Dr5CyFX9zJf7uuK8GBN0oS6KJrYogi5g2BEwdHZpQprdx3Lvgcijp/flan6pVxpzD/t4j07Tj6DLGlENuvwx70Qzreu9r1Kglazwd+17AADA8CiFUa7icWvFAVi6Wr9ThV+HAwBAQ+w+vifT09NF3Xu8ax/IvXuPJT8T2Vpxn69s5eeXRf7fXdSluwG9tiuP72X3Mf63BSc0n1bVBjVU/D6OdOm7vPxvZ7J3eVEURVEUNUwV1vFu1v1UvxAq7jP80RB0AQAaRUOuuY1F2d7bkz1XT2R2bS6EXUZDr+UXsrq9Jw/n82uXgAsBl0WeFPdnT57IMyHqOofdTdmQpezPhmySdLWIm09rSuOyhtafh8/LzW6qLByjKIqiKGo4KrWeh7IewPqB1uvhc6PnVQRdAIAG2ZJP1kRWH8WPf83Lw+1VkY3NsNtGQ665DVncfir3L/o5sYHalc2N7P5sP8zuSjD/0J+Xd8LdE5cN5rvgHq/Y9XgH3JasFPPz6zq/uJZ/R8Pt6k1d/FAWZneyf2b5f7C7byuyoju9qvcndb3gd4eV7/Hw3Me42aw2nnauB9+klis0ur4ZLl/zO7iqR4qiKIqi6lvV9Tq1nlv5dd8qXGst1064cSw+J+gCADTH7hfy4uai3KmGV1evy+zO5/Lf7mRDHlzKkCujO492ZuV6m//uq/efFru89p7MytonedqysyafL9j1JVn/WB/R00DGbQ0r/s7D+S1ZmftcPrLv2F6UjQdNf5zPh4eL2T+6+YUl2YkD1Z0XMvMovxd635ZX/M65dtedq3L/o+zas/zK1jNZX/poaP+tWtPZevTjVIWmV8/1V4mXAy+tanNMURRFUVT9qrpep9fv1vU+1R/4cm2EG6eOhqALAHC57Igsrs7KWuMDmDZuzsi1fNgi3o21vC7y4gt/j26uyoe2BezajNzUo3tcL7quNGiUdVm275hbk50iYGwodx/ycHV+QZZ2oscX49BVP8vuzhf/k43bXTd6bd0/Trr1bF2WFprxbG1rU+rHccXNbWiAfRPcWvHnFEVRFEXVvzqv56l+IJRrH9w4PqYQdAEAmsPt3Eq8J8nt9MoDHg0Z7j+U7cUNmSs/M9Z87e6P0pDL7XTLdxptr/pA66xurkbvR9MqPybZNPrY4s7Omsy5cG9Z1iV6fPGlzcvC0ro829qSZ+tLMmw5V7XxjM/j5tSXjuNzX9bgxsfW0usURVEURQ1Pta7nqXW/XOVewfoIE4+VnhdB19T07XzUGfPSmJfW63mzN+7mIwBImZcPV6WyW0sfp1vTZ8ui93bpY3qPZPXFcutL6hstvz9z8aNy2R1ayc+jnUYuwPHDtKt3ZFHWxJ5udFyQVrnWaPrY4o4sRY9v6qOIpccXjT6CqPf3tfzctLk+n/0P9WJ5WV6sfjhUQeFb79xxx1TTaXT8S9d/oxj7ox9rxc3utTffd8f4WqpmvjafvF4t5qWLeeliXrqYly7mpYt56WJeeV238dU3fqs49+XaBDe2o9Zr194rzmPFvJP9vRM3Agbs5OSkUiLHx8dufHR0lI39Uevg4FD2Dw7kX/7tP2Xhd76VfwOAutnc3JRbt27lZxfH/ebFtRDTaBDhfrOi7lp6IPLoqb2sXl/0rWHCtjwdwEuQnj9/Lnfu+GCgnX7cw+r9yW6Q7GU3aGtlWvSJRXVzaUnkxYw8eiTyIL5n8T10u8DWikDM3edr5Wtuh1f1O3poUPfQafn3pPTf1Mcy89eLsvHd6D7IkjzR3W2Ve1a6XvoufQeau9D393N1cw+rnv34R/L69Sl55ZVJ+cpXXpXJiQmZmBiX8XGtsahJDU2pla7rpv04H2Ti66p6DgAAhov2A7H4PP6ofD09jtl1gi7Uhjau5SLoAobdoIKuYTHQkKYhansPkyFYpt31qq0Vmf54Rrb7EA5W9Svo0spWd9d0xqV0bY+dfp4PAABAo+StQcF6BXPauYmv844uAACAmnEvof+o/yFXv2nTmWpI7bp91ulcS9/roR9RFEVRFNWc8ut7uap9QOo8lrpO0AUAANBrV+/L09RurHbXK+Yf5o/bNkSqMTXWoNqc+JyiKIqiqMtX1X6gnXafEXQBAACg77ptWKtlUp9RFEVRFDW8ZTp9VtXNHIIuAAAAXKi4Se3UqKrqXIqiKIqimlWdnGWu4WX0qA3/AnpeRg80ib4EHJ118yJ1dMY9PL9+vYxe+9GXaVBTtB8AAADNcZ6+oBOCLtRGOeQi6AIAoK4GEXQBAAB0g0cXAQAAAAAA0AhF0DU1fTsfdca8NOal9Xre7I27+QgAAAxadYfWW+909whkU/oS5qUxL415acxLY14a89KYV8aji6iNTo8u6vHoSCs8unhweCCf/SuPLgIAcNH00cWZ17/qHl189dVXikcXJ7Lj2Ngojy4CAICB4dFF1MppTTCNMgAA9dHNusy6DQAALhJBF4ZGtUemaQYAYHCq6zDrMgAAqAOCLtSSNct6tKqe2zUAAHDxUmuyHsrnrNUAAOBiEXRhaMTNsjXSAABgMPxanJ9kWJcBAEAdEHShtlL9sjbRRWV/AADAYIQ1OR1yJS4BAAD0HUEXhkK1mbYCAACDw/oMAADqhqALtRY3zHEDHV8HAAAXL7Uua9lnAAAAg0DQhaEQN85xAQCAwRgZGSmtx9UjAADAIFw52d870cHU9G35+d5n7mInzEtjXtpZ552cnLhSNtbT4+NjN7725vvys59+KkdHx3JwcCBb//jcza36waMfyp88+F5+1h7z0piXxrw05qUxL415acM4790bMzI5OSmTExMyMTEu4+Pj8uavfCB7n/+TjIyUfygVj9Ww9CWnYV4a89KYl8a8NOalMS+NeWVF0AXUQRxy2bEadh0dHcnh4ZELujTw2j/Yly+/3M/OD7Prh+6aztH59h0AAKB71YDKSndxjY6OyNjYWFajMjExUQRdem18fCz7fLQIuuw74iMAAEA/EXShVuKAy46+QtClRy0LtjT02j84KMYWcrV+lzsAAIA2LIuKQykdx6VBl4ZZuoNrPA+3dKzBl4ZdGoYRdAEAgEEh6EKttIZTIegKYx92WailpUGXH/vdXDbPvgMAAHQvFVJZ2a6u0RENtnzgpcGXjuPdXPHfjY8AAAD9RNCFWolDqTio8hXGtqtLgy0feh1mR/9Y4/GJ382l5f++OwAAgC5ZJhWHVK6yP7ZjywdePtyyXV7tdnOpeAwAANAvBF2onRBQtR516I8h7NKAK4wJuQAA6AXLpaphlYZZdowDL3/dz7G/Uz0CAAD0G0EXasdCKhUCq3C0jy3UCkc/NvZ3VDwGAADtxaFUaqxHHfqgK4Rees1/FuaZeAwAANBPBF2opVRI1XoMYwu42gVdAADg7FJhlR0t5NLT6md2VPEYAACg3wi6UEvVkCo+D0GXHdOfAwCA3qiGVSHQ8uNOwVb1HAAAoJ8IulBb1cCq3Xnr9XwAAAB6oppVhaCrc6hFyAUAAC7aSH6Uqenb+agz5qUxL+0881LN8mvX3svP/Hmq9MW40zO/mY11TudiXrqYly7mpYt56WJeupiXrrrO8y+bvyK//LrOa11zjZ1/9eo38iv+WjvD2JekMC+NeWnMS2NeGvPSmJfGvDJ2dGEotHscsd31WDdzAABA0CmkMu3mdPN3AQAA+oWgC0PlZUIrgi4AAM7mZcIqAi4AAFAHBF0YegRZAABcLEItAABQVwRdAAAAAAAAaITiZfQAAAAAAADAMCPoAgAAAAAAQCMQdAEAAAAAAKARCLoAAAAAAADQCARdAAAAAAAAaIQi6Jqavp2POmNeGvPSmJfGvDTmpTEvjXlpzEtjXhrz0piXxrw05qUxL415acxLY17aafOunOzvneRjAAAAAAAAYGjx6CIAAAAAAAAagaALAAAAAAAAjUDQBQAAAAAAgEYg6AIAAAAAAEADiPw/B1Gjxzc5SjYAAAAASUVORK5CYII=;" vertex="1" parent="1">
          <mxGeometry x="30" y="325" width="1210" height="439" as="geometry" />
        </mxCell>
        <mxCell id="NWNPOwhrwh37BkT3EGu5-2" value="" style="rounded=0;whiteSpace=wrap;html=1;fillColor=none;strokeWidth=5;strokeColor=#FF0000;" vertex="1" parent="1">
          <mxGeometry x="40" y="460" width="130" height="150" as="geometry" />
        </mxCell>
        <mxCell id="NWNPOwhrwh37BkT3EGu5-3" value="" style="rounded=0;whiteSpace=wrap;html=1;fillColor=none;strokeWidth=5;strokeColor=#FF0000;" vertex="1" parent="1">
          <mxGeometry x="200" y="340" width="490" height="410" as="geometry" />
        </mxCell>
        <mxCell id="NWNPOwhrwh37BkT3EGu5-4" style="edgeStyle=orthogonalEdgeStyle;rounded=0;orthogonalLoop=1;jettySize=auto;html=1;exitX=1;exitY=0.5;exitDx=0;exitDy=0;entryX=0.002;entryY=0.476;entryDx=0;entryDy=0;entryPerimeter=0;strokeWidth=5;strokeColor=#FF0000;" edge="1" parent="1" source="NWNPOwhrwh37BkT3EGu5-2" target="NWNPOwhrwh37BkT3EGu5-3">
          <mxGeometry relative="1" as="geometry" />
        </mxCell>
        <mxCell id="NWNPOwhrwh37BkT3EGu5-5" value="&lt;font style=&quot;font-size: 16px;&quot;&gt;&lt;b&gt;Step 1:&lt;/b&gt;&lt;/font&gt;&lt;div&gt;&lt;font style=&quot;font-size: 16px;&quot;&gt;Open the &lt;i&gt;Edit Properties&lt;/i&gt;&amp;nbsp;dialog for your component.&lt;/font&gt;&lt;/div&gt;" style="shape=callout;whiteSpace=wrap;html=1;perimeter=calloutPerimeter;base=23;size=200;position=0.42;spacing=7;fillColor=#f8cecc;strokeColor=#b85450;position2=0.47;" vertex="1" parent="1">
          <mxGeometry x="90" y="170" width="190" height="360" as="geometry" />
        </mxCell>
        <mxCell id="NWNPOwhrwh37BkT3EGu5-8" style="edgeStyle=orthogonalEdgeStyle;rounded=0;orthogonalLoop=1;jettySize=auto;html=1;exitX=1;exitY=0.5;exitDx=0;exitDy=0;entryX=0;entryY=0.5;entryDx=0;entryDy=0;strokeWidth=5;strokeColor=#007FFF;" edge="1" parent="1" source="NWNPOwhrwh37BkT3EGu5-6" target="NWNPOwhrwh37BkT3EGu5-7">
          <mxGeometry relative="1" as="geometry" />
        </mxCell>
        <mxCell id="NWNPOwhrwh37BkT3EGu5-6" value="" style="rounded=0;whiteSpace=wrap;html=1;fillColor=none;strokeWidth=5;strokeColor=#007FFF;" vertex="1" parent="1">
          <mxGeometry x="220" y="430" width="210" height="40" as="geometry" />
        </mxCell>
        <mxCell id="NWNPOwhrwh37BkT3EGu5-7" value="" style="rounded=0;whiteSpace=wrap;html=1;fillColor=none;strokeWidth=5;strokeColor=#007FFF;" vertex="1" parent="1">
          <mxGeometry x="700" y="380" width="530" height="330" as="geometry" />
        </mxCell>
        <mxCell id="NWNPOwhrwh37BkT3EGu5-9" value="&lt;font style=&quot;font-size: 16px;&quot;&gt;&lt;b&gt;Step 2:&lt;/b&gt;&lt;/font&gt;&lt;div&gt;&lt;span style=&quot;font-size: 16px;&quot;&gt;Choose &lt;i&gt;Populate Parameters from SPICE file...&lt;/i&gt;&lt;/span&gt;&lt;/div&gt;" style="shape=callout;whiteSpace=wrap;html=1;perimeter=calloutPerimeter;base=30;size=120;position=0.32;spacing=7;fillColor=#dae8fc;strokeColor=#6c8ebf;position2=0.11;" vertex="1" parent="1">
          <mxGeometry x="410" y="170" width="190" height="280" as="geometry" />
        </mxCell>
        <mxCell id="NWNPOwhrwh37BkT3EGu5-10" value="&lt;font style=&quot;font-size: 16px;&quot;&gt;&lt;b&gt;Step 3:&lt;/b&gt;&lt;/font&gt;&lt;div&gt;&lt;span style=&quot;font-size: 16px;&quot;&gt;Paste your SPICE model text into the dialog box.&lt;/span&gt;&lt;/div&gt;&lt;div&gt;&lt;span style=&quot;font-size: 16px;&quot;&gt;&lt;b&gt;&lt;br&gt;&lt;/b&gt;&lt;/span&gt;&lt;div&gt;&lt;span style=&quot;font-size: 16px;&quot;&gt;Optionally, click &lt;i&gt;Convert Number Notation&lt;/i&gt; if you&#39;d like all the parameters to be converted to Scientific Notation (e.g. &lt;font face=&quot;Courier New&quot;&gt;&lt;b&gt;1e-3&lt;/b&gt;&lt;/font&gt;&lt;/span&gt;&lt;span style=&quot;font-size: 16px; background-color: transparent; color: light-dark(rgb(0, 0, 0), rgb(255, 255, 255));&quot;&gt;&amp;nbsp;&lt;/span&gt;&lt;span style=&quot;font-size: 16px; background-color: transparent; color: light-dark(rgb(0, 0, 0), rgb(255, 255, 255));&quot;&gt;instead of &lt;font face=&quot;Courier New&quot;&gt;&lt;b&gt;0.001&lt;/b&gt;&lt;/font&gt;&lt;/span&gt;&lt;span style=&quot;font-size: 16px; background-color: transparent; color: light-dark(rgb(0, 0, 0), rgb(255, 255, 255));&quot;&gt;). The simulator will accept either notation, so choose whatever is more readable to you.&lt;/span&gt;&lt;/div&gt;&lt;div&gt;&lt;span style=&quot;font-size: 16px;&quot;&gt;&lt;br&gt;&lt;/span&gt;&lt;/div&gt;&lt;div&gt;&lt;span style=&quot;font-size: 16px;&quot;&gt;Then click &lt;i&gt;OK&lt;/i&gt;&amp;nbsp;to load the model parameters into this component.&lt;/span&gt;&lt;/div&gt;&lt;/div&gt;" style="shape=callout;whiteSpace=wrap;html=1;perimeter=calloutPerimeter;base=29;size=270;position=0.08;spacing=7;fillColor=#d5e8d4;strokeColor=#82b366;position2=0.17;" vertex="1" parent="1">
          <mxGeometry x="630" y="170" width="600" height="470" as="geometry" />
        </mxCell>
        <mxCell id="NWNPOwhrwh37BkT3EGu5-11" value="" style="rounded=0;whiteSpace=wrap;html=1;fillColor=none;strokeWidth=5;strokeColor=#00CC00;" vertex="1" parent="1">
          <mxGeometry x="710" y="640" width="170" height="60" as="geometry" />
        </mxCell>
        <mxCell id="NWNPOwhrwh37BkT3EGu5-12" value="&lt;b&gt;Importing a SPICE Discrete Device Model (.MODEL directive) using the&amp;nbsp;&lt;i&gt;Populate Parameters from SPICE File &lt;/i&gt;feature&lt;/b&gt;" style="text;strokeColor=none;align=center;fillColor=none;html=1;verticalAlign=middle;whiteSpace=wrap;rounded=0;fontSize=35;" vertex="1" parent="1">
          <mxGeometry x="97.5" y="50" width="1075" height="80" as="geometry" />
        </mxCell>
      </root>
    </mxGraphModel>
  </diagram>
</mxfile>
